<?xml version="1.0" encoding="UTF-8"?>
<svg width="25px" height="26px" viewBox="0 0 25 26" version="1.1" xmlns="http://www.w3.org/2000/svg" xmlns:xlink="http://www.w3.org/1999/xlink">
    <!-- Generator: Sketch 54.1 (76490) - https://sketchapp.com -->
    <title>3-zc</title>
    <desc>Created with Sketch.</desc>
    <g id="icon" stroke="none" stroke-width="1" fill="none" fill-rule="evenodd">
        <path d="M24.8767239,17.8913747 C24.9909433,18.0171444 25.0294442,18.195532 24.9768263,18.3572358 L23.2160512,23.7435137 C23.1647166,23.9026508 23.0312468,24.023287 22.8656928,24.0579378 C22.7014223,24.093872 22.5294515,24.0399707 22.4165155,23.9142011 L21.1806362,22.5615356 C18.8538976,24.5610164 15.8995941,25.667276 12.833638,25.667276 C5.75717001,25.667276 1.38555833e-13,19.910106 1.38555833e-13,12.833638 C1.38555833e-13,5.75588665 5.75717001,-2.27373675e-13 12.833638,-2.27373675e-13 C16.1139159,-2.27373675e-13 19.2389067,1.24357952 21.6336636,3.50229981 C22.0199561,3.86677513 22.0379232,4.47508957 21.6721645,4.86266544 C21.3076892,5.24767458 20.6993747,5.26692504 20.3117989,4.90116635 C18.5138062,3.20455941 16.2281353,2.18428519 13.7961609,1.96996343 L13.7961609,3.54336745 C13.7961609,4.07468007 13.3649506,4.5058903 12.833638,4.5058903 C12.3023254,4.5058903 11.8711152,4.07468007 11.8711152,3.54336745 L11.8711152,1.97381353 C6.62472394,2.43454113 2.43582449,6.62344058 1.97381353,11.8711152 L3.54336745,11.8711152 C4.07596343,11.8711152 4.5058903,12.3023254 4.5058903,12.833638 C4.5058903,13.3649506 4.07596343,13.7961609 3.54336745,13.7961609 L1.97381353,13.7961609 C2.4640585,19.3608263 7.14448628,23.7422303 12.833638,23.7422303 C15.4196161,23.7422303 17.9106252,22.8143583 19.881872,21.1395685 L18.6536928,19.7946033 C18.5407568,19.670117 18.5022559,19.4942961 18.5523071,19.3338757 C18.5779744,19.2530237 18.6241755,19.1811554 18.6844936,19.1246874 C18.7448117,19.0707861 18.8179634,19.0322852 18.8988153,19.0143181 L24.4211298,17.7489214 C24.5879671,17.7104204 24.7612212,17.7656051 24.8767239,17.8913747 Z M13.0613067,16.2213334 C14.0071459,16.2213334 15.263559,15.8260574 15.263559,14.7672822 C15.263559,14.1743682 14.938868,13.4402841 13.1601258,13.4402841 L11.6213726,13.4402841 L11.6213726,11.9156479 L13.0471897,11.9156479 C14.0494969,11.9156479 15.108272,11.6474248 15.122389,10.7285364 C15.122389,10.1638563 14.670645,9.4156552 13.0895407,9.4156552 C12.2142866,9.4156552 11.0284585,9.72622924 11.0284585,10.6297174 L9.16501425,10.6297174 C9.16501425,8.49805008 11.2825645,7.72161498 13.1036578,7.72161498 C14.967102,7.72161498 16.9717162,8.6251031 16.9871166,10.7285364 C16.9871166,11.5049715 16.4789045,12.4084596 15.6164841,12.6766826 C16.5636066,12.9872567 17.2271056,13.9202621 17.2271056,14.7518819 C17.2271056,17.1671726 14.952985,17.8871396 13.0471897,17.8871396 C11.1696285,17.8871396 9.02384423,17.0965875 9.00972723,14.8519843 L10.8872885,14.8519843 C10.8872885,15.8684084 12.2566376,16.2213334 13.0613067,16.2213334 Z" id="3-zc" fill="#5C6370"></path>
    </g>
</svg>