<?xml version="1.0" encoding="UTF-8"?>
<svg width="25px" height="26px" viewBox="0 0 25 26" version="1.1" xmlns="http://www.w3.org/2000/svg" xmlns:xlink="http://www.w3.org/1999/xlink">
    <!-- Generator: Sketch 54.1 (76490) - https://sketchapp.com -->
    <title>30-zc</title>
    <desc>Created with Sketch.</desc>
    <g id="icon" stroke="none" stroke-width="1" fill="none" fill-rule="evenodd">
        <path d="M24.8759167,17.8917172 C24.9914216,18.0174893 25.0299233,18.1958802 24.976021,18.3575872 L23.2152121,23.7439681 C23.1638766,23.9031083 23.0304042,24.0237468 22.8648471,24.0583983 C22.7005734,24.0943332 22.5285994,24.0404309 22.4156612,23.9146588 L21.1797582,22.5619675 C18.8529751,24.5614865 15.8986151,25.6677673 12.8338836,25.6677673 C5.7572802,25.6677673 9.23705556e-14,19.9104871 9.23705556e-14,12.8338836 C9.23705556e-14,5.75599682 5.7572802,-2.84217094e-13 12.8338836,-2.84217094e-13 C16.1142243,-2.84217094e-13 19.2379916,1.24360333 21.6327943,3.50236685 C22.0190942,3.86684914 22.0370616,4.47517523 21.6712959,4.86275851 C21.308097,5.24777502 20.6984875,5.26702585 20.3109043,4.90126017 C18.5128772,3.20462075 16.2271625,2.184327 13.7964249,1.97000114 L13.7964249,3.54343528 C13.7964249,4.07475806 13.3652064,4.50597655 12.8338836,4.50597655 C12.3025609,4.50597655 11.8713424,4.07475806 11.8713424,3.54343528 L11.8713424,1.97385131 C6.30528704,2.46282227 1.92508255,7.14333964 1.92508255,12.8338836 C1.92508255,18.8491249 6.81864238,23.7426848 12.8338836,23.7426848 C15.4186278,23.7426848 17.9096846,22.814795 19.8809692,21.1386898 L18.6540499,19.7949821 C18.5398283,19.6704935 18.5013267,19.4946693 18.5513788,19.3342457 C18.5770466,19.2533923 18.6232486,19.1815225 18.6835678,19.1250534 C18.7438871,19.0711511 18.8170402,19.0326495 18.8978937,19.014682 L24.4215972,17.7492611 C24.5871543,17.7107594 24.7604117,17.7659451 24.8759167,17.8917172 Z M8.46137949,16.2216439 C9.40723671,16.2216439 10.6636739,15.8263603 10.6636739,14.7675649 C10.6636739,14.1746395 10.3389767,13.4405413 8.56020039,13.4405413 L7.02141774,13.4405413 L7.02141774,11.915876 L8.44726222,11.915876 C9.45087192,11.915876 10.5083839,11.6476478 10.5225012,10.7287417 C10.5225012,10.1640508 10.0707485,9.41583542 8.48961403,9.41583542 C7.61434317,9.41583542 6.42849232,9.7264154 6.42849232,10.6299208 L4.56501241,10.6299208 C4.56501241,8.49821274 6.68260322,7.72176278 8.50373131,7.72176278 C10.3672112,7.72176278 12.3718638,8.62526818 12.3872645,10.7287417 C12.3872645,11.5051917 11.8790427,12.4086971 11.0166057,12.6769253 C11.9637463,12.9875052 12.6272581,13.9205286 12.6272581,14.7521642 C12.6272581,17.1675011 10.3543773,17.887482 8.44726222,17.887482 C6.56966504,17.887482 4.42383969,17.0969148 4.40972242,14.8522685 L6.2873196,14.8522685 C6.2873196,15.8687121 7.65669498,16.2216439 8.46137949,16.2216439 Z M20.7300589,13.5107427 L20.7300589,12.0848982 C20.7300589,8.55429681 15.7594958,8.51194499 15.7594958,12.0848982 L15.7594958,13.5107427 C15.7594958,17.0965298 20.7300589,17.0965298 20.7300589,13.5107427 Z M13.9101331,12.0848982 C13.9101331,6.18259511 22.5794215,6.19671238 22.5794215,12.0848982 L22.5794215,13.5107427 C22.5794215,19.3976451 13.9101331,19.4130458 13.9101331,13.5107427 L13.9101331,12.0848982 Z" id="30-zc" fill="#5C6370"></path>
    </g>
</svg>