<?xml version="1.0" encoding="UTF-8"?>
<svg width="25px" height="26px" viewBox="0 0 25 26" version="1.1" xmlns="http://www.w3.org/2000/svg" xmlns:xlink="http://www.w3.org/1999/xlink">
    <!-- Generator: Sketch 54.1 (76490) - https://sketchapp.com -->
    <title>7-zc</title>
    <desc>Created with Sketch.</desc>
    <g id="icon" stroke="none" stroke-width="1" fill="none" fill-rule="evenodd">
        <path d="M24.8759167,17.8921172 C24.9914216,18.0178893 25.0299233,18.1962802 24.976021,18.3579872 L23.2152121,23.7443681 C23.1638766,23.9035083 23.0304042,24.0241468 22.8648471,24.0587983 C22.7005734,24.0947332 22.5285994,24.0408309 22.4156612,23.9150588 L21.1810416,22.5623675 C18.8529751,24.5618865 15.8998985,25.6681673 12.8338836,25.6681673 C5.7572802,25.6681673 3.19744231e-13,19.9108871 3.19744231e-13,12.8342836 C3.19744231e-13,5.75639682 5.7572802,0.0004 12.8338836,0.0004 C16.1142243,0.0004 19.239275,1.24400333 21.6327943,3.50276685 C22.0190942,3.86724914 22.0370616,4.47557523 21.6725793,4.86315851 C21.308097,5.24817502 20.6997709,5.26742585 20.3121877,4.90166017 C18.5128772,3.20502075 16.2271625,2.184727 13.7964249,1.97040114 L13.7964249,3.54383528 C13.7964249,4.07515806 13.3652064,4.50637655 12.8338836,4.50637655 C12.3025609,4.50637655 11.8713424,4.07515806 11.8713424,3.54383528 L11.8713424,1.97425131 C6.62356735,2.43498773 2.43458773,6.62396735 1.97385131,11.8717424 L3.54343528,11.8717424 C4.07475806,11.8717424 4.50597655,12.3029609 4.50597655,12.8342836 C4.50597655,13.3656064 4.07475806,13.7968249 3.54343528,13.7968249 L1.97385131,13.7968249 C2.46282227,19.3615969 7.14333964,23.7430848 12.8338836,23.7430848 C15.4186278,23.7430848 17.9096846,22.815195 19.8809692,21.1403731 L18.6540499,19.7953821 C18.5398283,19.6708935 18.5013267,19.4950693 18.5513788,19.3346457 C18.5770466,19.2537923 18.6232486,19.1819225 18.6848512,19.1254534 C18.7438871,19.0715511 18.8170402,19.0330495 18.8978937,19.015082 L24.4215972,17.7496611 C24.5871543,17.7111594 24.7604117,17.7663451 24.8759167,17.8921172 Z M12.4274346,18.2805989 L10.2816092,18.2805989 L14.319149,10.1760013 L9.50515925,10.1760013 L9.50515925,8.39722505 L16.7614371,8.39722505 L16.860258,9.3854341 L12.4274346,18.2805989 Z" id="7-zc" fill="#5C6370"></path>
    </g>
</svg>