<?xml version="1.0" standalone="no"?><!DOCTYPE svg PUBLIC "-//W3C//DTD SVG 1.1//EN" "http://www.w3.org/Graphics/SVG/1.1/DTD/svg11.dtd"><svg t="1722156703714" class="icon" viewBox="0 0 1024 1024" version="1.1" xmlns="http://www.w3.org/2000/svg" p-id="10238" xmlns:xlink="http://www.w3.org/1999/xlink" width="200" height="200"><path d="M348.16 983.04a163.84 40.96 0 1 0 327.68 0 163.84 40.96 0 1 0-327.68 0Z" fill="#2080F7" fill-opacity=".2" p-id="10239"></path><path d="M512 0a327.68 327.68 0 0 0-327.68 327.68c0 262.144 262.144 229.376 327.68 655.36 65.536-425.984 327.68-393.216 327.68-655.36a327.68 327.68 0 0 0-327.68-327.68" fill="#2080F7" p-id="10240"></path><path d="M386.00704 323.7888c0.04096 0 0.12288 0 0.16384 0.08192l170.22976 97.32096c5.69344 3.2768 7.70048 10.4448 4.5056 16.13824l-5.98016 10.8544a11.91936 11.91936 0 0 1-16.22016 4.66944l-0.12288-0.08192-76.5952-43.78624-34.816 47.26784a11.91936 11.91936 0 0 1-9.6256 4.87424l-62.62784-0.04096v47.3088c0 4.5056-2.49856 8.6016-6.51264 10.6496l-23.87968 12.12416a11.91936 11.91936 0 0 1-17.32608-10.6496v-155.2384a11.91936 11.91936 0 0 1 17.32608-10.6496l23.87968 12.16512c4.01408 2.048 6.5536 6.144 6.5536 10.6496l-0.04096 47.22688h50.7904l24.82176-33.66912-62.21824-35.59424a11.91936 11.91936 0 0 1-4.5056-16.13824l5.98016-10.8544a11.91936 11.91936 0 0 1 16.22016-4.62848zM442.08128 165.4784l268.73856 157.696c7.33184 4.3008 8.06912 14.7456 1.4336 20.0704l-101.04832 80.81408a11.79648 11.79648 0 0 1-13.35296 0.98304L370.44224 291.55328a12.24704 12.24704 0 0 1-4.34176-16.54784l59.67872-105.10336a11.83744 11.83744 0 0 1 16.30208-4.42368z m17.36704 39.19872L411.648 288.768l20.6848 12.16512L480.0512 216.80128l-20.64384-12.12416z" fill="#FFFFFF" p-id="10241"></path></svg>