<?xml version="1.0" standalone="no"?><!DOCTYPE svg PUBLIC "-//W3C//DTD SVG 1.1//EN" "http://www.w3.org/Graphics/SVG/1.1/DTD/svg11.dtd"><svg t="1722156713474" class="icon" viewBox="0 0 1024 1024" version="1.1" xmlns="http://www.w3.org/2000/svg" p-id="10402" xmlns:xlink="http://www.w3.org/1999/xlink" width="200" height="200"><path d="M512 876.088889c-65.422222 0-128-14.222222-184.888889-39.803259L512 1018.311111l184.888889-182.016C640 861.866667 577.422222 876.088889 512 876.088889" fill="#D01818" p-id="10403"></path><path d="M938.666667 426.666667c0 236.088889-190.577778 426.666667-426.666667 426.666666S85.333333 662.755556 85.333333 426.666667 275.911111 0 512 0s426.666667 190.577778 426.666667 426.666667" fill="#FF4242" p-id="10404"></path><path d="M853.333333 426.666667c0 187.733333-153.6 341.333333-341.333333 341.333333S170.666667 614.4 170.666667 426.666667 324.266667 85.333333 512 85.333333s341.333333 153.6 341.333333 341.333334" fill="#FFFFFF" p-id="10405"></path><path d="M411.079111 497.588148h-49.095111v-61.800296L312.888889 426.666667v199.111111l49.095111-16.004741v-68.693333h79.492741L483.555556 483.877926l-56.111408-29.781333-16.365037 43.491555z m251.448889 12.088889L777.481481 439.561481 420.901926 218.074074h-42.230519L322.37037 301.729185v29.411556L636.728889 512l25.799111-2.322963z m-42.932148 16.535704L350.454519 360.296296 322.37037 389.480296 635.979852 568.888889h28.084148l14.042074-13.492148L692.148148 515.024593l-42.126222 29.184c-18.773333-13.50163-30.426074-17.995852-30.426074-17.995852z" fill="#FF4242" p-id="10406"></path></svg>