<?xml version="1.0" standalone="no"?><!DOCTYPE svg PUBLIC "-//W3C//DTD SVG 1.1//EN" "http://www.w3.org/Graphics/SVG/1.1/DTD/svg11.dtd"><svg t="1696748781256" class="icon" viewBox="0 0 1024 1024" version="1.1" xmlns="http://www.w3.org/2000/svg" p-id="4123" xmlns:xlink="http://www.w3.org/1999/xlink" width="64" height="64"><path d="M880.64 855.04H138.24c-61.44 0-107.52-46.08-107.52-107.52V245.76c0-61.44 46.08-107.52 107.52-107.52h742.4c61.44 0 107.52 46.08 107.52 107.52v501.76c0 61.44-51.2 107.52-107.52 107.52zM138.24 199.68c-25.6 0-46.08 20.48-46.08 46.08v501.76c0 25.6 20.48 46.08 46.08 46.08h742.4c25.6 0 46.08-20.48 46.08-46.08V245.76c0-25.6-20.48-46.08-46.08-46.08H138.24z" fill="#A9BFE4" p-id="4124"></path><path d="M814.08 399.36h-163.84c-10.24 0-15.36-10.24-15.36-15.36 0-10.24 10.24-15.36 15.36-15.36h163.84c10.24 0 15.36 10.24 15.36 15.36 5.12 10.24-5.12 15.36-15.36 15.36zM814.08 501.76h-163.84c-10.24 0-15.36-10.24-15.36-15.36 0-10.24 10.24-15.36 15.36-15.36h163.84c10.24 0 15.36 10.24 15.36 15.36 5.12 10.24-5.12 15.36-15.36 15.36zM814.08 614.4h-163.84c-10.24 0-15.36-10.24-15.36-15.36 0-10.24 10.24-15.36 15.36-15.36h163.84c10.24 0 15.36 10.24 15.36 15.36 5.12 5.12-5.12 15.36-15.36 15.36zM368.64 481.28c46.08 0 87.04-35.84 87.04-87.04s-40.96-81.92-87.04-81.92-87.04 35.84-87.04 81.92 40.96 87.04 87.04 87.04z m0 204.8c87.04 0 148.48 0 148.48-51.2s-30.72-97.28-56.32-117.76c-30.72-25.6-46.08-25.6-46.08-25.6H322.56s-20.48 0-46.08 20.48-61.44 66.56-56.32 117.76c0 51.2 61.44 51.2 148.48 56.32z m0 0" fill="#648FDA" p-id="4125"></path></svg>