<?xml version="1.0" standalone="no"?><!DOCTYPE svg PUBLIC "-//W3C//DTD SVG 1.1//EN" "http://www.w3.org/Graphics/SVG/1.1/DTD/svg11.dtd"><svg t="1686037609859" class="icon" viewBox="0 0 1024 1024" version="1.1" xmlns="http://www.w3.org/2000/svg" p-id="12654" xmlns:xlink="http://www.w3.org/1999/xlink" width="64" height="64"><path d="M373.077333 853.333333H56.888889V170.666667h910.222222v202.524444h-52.337778V223.004444H109.226667v577.991112h263.850666V853.333333z" fill="#538EF4" p-id="12655"></path><path d="M208.213333 650.808889h159.288889v52.337778h-159.288889zM208.213333 485.831111h204.8v52.337778h-204.8zM208.213333 320.853333h341.333334v52.337778h-341.333334zM719.075556 807.822222A201.841778 201.841778 0 1 1 921.6 605.980444 202.410667 202.410667 0 0 1 719.075556 807.822222z m0-351.345778a149.504 149.504 0 1 0 150.186666 149.504 149.959111 149.959111 0 0 0-150.186666-149.504z" fill="#538EF4" p-id="12656"></path><path d="M836.528356 759.955911l36.943644-37.0688 93.661867 93.297778-36.932267 37.091555z" fill="#538EF4" p-id="12657"></path></svg>