<?xml version="1.0" standalone="no"?><!DOCTYPE svg PUBLIC "-//W3C//DTD SVG 1.1//EN" "http://www.w3.org/Graphics/SVG/1.1/DTD/svg11.dtd"><svg height="138" node-id="1" sillyvg="true" template-height="138" template-width="238" version="1.1" viewBox="0 0 238 138" width="238" xmlns="http://www.w3.org/2000/svg" xmlns:xlink="http://www.w3.org/1999/xlink"><defs node-id="75"><linearGradient gradientUnits="objectBoundingBox" id="未命名的渐变_217" node-id="5" spreadMethod="pad" x1="119.2" x2="119.2" y1="138.19" y2="69.79"><stop offset="0" stop-color="#ffffff"></stop><stop offset="0.38" stop-color="#fdfeff"></stop><stop offset="0.53" stop-color="#f6fafe"></stop><stop offset="0.65" stop-color="#e9f4fc"></stop><stop offset="0.75" stop-color="#d8eaf9"></stop><stop offset="0.84" stop-color="#c1def6"></stop><stop offset="0.91" stop-color="#a4cff1"></stop><stop offset="0.98" stop-color="#83beec"></stop><stop offset="1" stop-color="#7ab9eb"></stop></linearGradient><linearGradient gradientUnits="objectBoundingBox" id="未命名的渐变_259" node-id="15" spreadMethod="pad" x1="81.1" x2="72.4" y1="106.1" y2="73.65"><stop offset="0" stop-color="#5caae8" stop-opacity="0.5"></stop><stop offset="0.29" stop-color="#99caf1" stop-opacity="0.31"></stop><stop offset="0.6" stop-color="#d0e7f8" stop-opacity="0.14"></stop><stop offset="0.85" stop-color="#f2f8fd" stop-opacity="0.04"></stop><stop offset="1" stop-color="#ffffff" stop-opacity="0"></stop></linearGradient><linearGradient gradientUnits="objectBoundingBox" id="未命名的渐变_255" node-id="21" spreadMethod="pad" x1="159.04" x2="159.04" y1="116" y2="105.62"><stop offset="0" stop-color="#5caae8" stop-opacity="0.3"></stop><stop offset="1" stop-color="#ffffff" stop-opacity="0"></stop></linearGradient><linearGradient gradientUnits="objectBoundingBox" id="未命名的渐变_19" node-id="24" spreadMethod="pad" x1="24.81" x2="24.81" y1="89.54" y2="80.43"><stop offset="0" stop-color="#ffffff"></stop><stop offset="1" stop-color="#7ab9eb"></stop></linearGradient><linearGradient gradientUnits="objectBoundingBox" id="未命名的渐变_19-2" node-id="27" spreadMethod="pad" x1="211.28" x2="211.28" y1="71.86" y2="58.11"><stop offset="0" stop-color="#ffffff"></stop><stop offset="1" stop-color="#7ab9eb"></stop></linearGradient><linearGradient gradientUnits="objectBoundingBox" id="未命名的渐变_248" node-id="28" spreadMethod="pad" x1="-470.42" x2="-470.42" y1="-453.32" y2="-454.58"><stop offset="0" stop-color="#5caae8"></stop><stop offset="0.09" stop-color="#6cb2ea"></stop><stop offset="0.25" stop-color="#80bced"></stop><stop offset="0.43" stop-color="#8ec3ef"></stop><stop offset="0.64" stop-color="#96c8f1"></stop><stop offset="1" stop-color="#99c9f1"></stop></linearGradient><linearGradient gradientUnits="objectBoundingBox" id="未命名的渐变_234" node-id="35" spreadMethod="pad" x1="-470.31" x2="-470.31" y1="-453.32" y2="-454.58"><stop offset="0" stop-color="#b8daf5"></stop><stop offset="0.04" stop-color="#beddf6"></stop><stop offset="0.2" stop-color="#d2e7f9"></stop><stop offset="0.39" stop-color="#e0eefb"></stop><stop offset="0.62" stop-color="#e8f3fd"></stop><stop offset="1" stop-color="#ebf4fd"></stop></linearGradient><linearGradient gradientUnits="objectBoundingBox" id="未命名的渐变_18" node-id="42" spreadMethod="pad" x1="69.56" x2="91.32" y1="59.57" y2="47.01"><stop offset="0" stop-color="#007adc"></stop><stop offset="1" stop-color="#0ab0ed"></stop></linearGradient><linearGradient gradientUnits="objectBoundingBox" id="未命名的渐变_18-2" node-id="45" spreadMethod="pad" x1="87.67" x2="94.46" y1="53.44" y2="49.52"><stop offset="0" stop-color="#007adc"></stop><stop offset="1" stop-color="#0ab0ed"></stop></linearGradient></defs><g node-id="225"><path d="M 238.40 104.00 L 238.20 106.10 L 237.50 108.20 L 236.30 110.40 L 234.60 112.60 L 232.30 114.80 L 229.30 117.10 L 220.90 121.80 L 215.40 124.20 L 208.00 126.80 L 199.50 129.30 L 189.60 131.60 L 179.70 133.50 L 168.80 135.10 L 156.90 136.40 L 132.40 138.00 L 119.20 138.20 L 106.00 138.00 L 81.50 136.40 L 69.60 135.10 L 58.70 133.50 L 48.80 131.60 L 38.90 129.30 L 30.40 126.80 L 23.00 124.20 L 12.90 119.50 L 9.10 117.10 L 6.10 114.80 L 3.80 112.60 L 2.10 110.40 L 0.90 108.20 L 0.20 106.10 L 0.00 104.00 L 0.20 101.90 L 0.90 99.70 L 2.10 97.60 L 3.80 95.40 L 6.10 93.20 L 12.90 88.50 L 17.50 86.20 L 23.00 83.80 L 30.40 81.20 L 38.90 78.70 L 48.80 76.40 L 58.70 74.50 L 69.60 72.90 L 81.50 71.50 L 93.40 70.60 L 119.20 69.80 L 132.40 70.00 L 156.90 71.50 L 168.80 72.90 L 179.70 74.50 L 189.60 76.40 L 199.50 78.70 L 208.00 81.20 L 215.40 83.80 L 220.90 86.20 L 229.30 90.90 L 232.30 93.20 L 234.60 95.40 L 236.30 97.60 L 237.50 99.70 L 238.20 101.90 L 238.40 104.00 Z" fill="url(#未命名的渐变_217)" fill-rule="nonzero" group-id="1" node-id="170" stroke="none" target-height="68.399994" target-width="238.4" target-x="0" target-y="69.8"></path><path d="M 104.30 106.00 L 101.30 103.30 L 93.20 93.10 L 85.70 82.70 L 78.60 71.80 L 68.20 73.10 L 49.90 76.20 Z" fill="url(#未命名的渐变_259)" fill-rule="nonzero" group-id="1" node-id="172" stroke="none" target-height="34.199997" target-width="54.4" target-x="49.9" target-y="71.8"></path><path d="M 173.10 110.80 L 172.30 112.50 L 169.10 114.40 L 166.20 115.30 L 162.90 115.80 L 159.00 116.00 L 155.20 115.80 L 151.90 115.30 L 148.90 114.40 L 146.90 113.40 L 145.20 111.70 L 145.00 110.80 L 145.80 109.10 L 148.90 107.20 L 151.90 106.30 L 155.20 105.80 L 159.00 105.60 L 162.90 105.80 L 166.20 106.30 L 169.10 107.20 L 172.30 109.10 L 173.10 110.80 Z" fill="url(#未命名的渐变_255)" fill-rule="nonzero" group-id="1" node-id="174" stroke="none" target-height="10.400002" target-width="28.100006" target-x="145" target-y="105.6"></path><path d="M 29.40 85.00 L 29.20 86.20 L 28.00 88.20 L 26.00 89.40 L 24.80 89.50 L 23.60 89.40 L 21.60 88.20 L 20.40 86.20 L 20.30 85.00 L 20.40 83.80 L 21.60 81.80 L 23.60 80.60 L 24.80 80.40 L 26.00 80.60 L 28.00 81.80 L 29.20 83.80 L 29.40 85.00 Z" fill="url(#未命名的渐变_19)" fill-rule="nonzero" group-id="1" node-id="176" stroke="none" target-height="9.099998" target-width="9.1" target-x="20.3" target-y="80.4"></path><path d="M 218.20 65.00 L 217.90 66.80 L 217.20 68.50 L 216.10 69.80 L 214.70 70.90 L 213.10 71.60 L 211.30 71.90 L 209.40 71.60 L 207.80 70.90 L 206.40 69.80 L 205.30 68.50 L 204.70 66.80 L 204.40 65.00 L 204.70 63.10 L 205.30 61.50 L 206.40 60.10 L 207.80 59.10 L 209.40 58.40 L 211.30 58.10 L 213.10 58.40 L 214.70 59.10 L 216.10 60.10 L 217.20 61.50 L 217.90 63.10 L 218.20 65.00 Z" fill="url(#未命名的渐变_19-2)" fill-rule="nonzero" group-id="1" node-id="178" stroke="none" target-height="13.800003" target-width="13.800003" target-x="204.4" target-y="58.1"></path><g node-id="226"><path d="M 107.80 0.00 L 112.10 0.20 L 116.10 0.90 L 120.00 1.90 L 123.70 3.30 L 130.60 7.10 L 136.60 12.10 L 141.50 18.10 L 145.30 25.10 L 146.60 28.80 L 147.60 32.70 L 148.20 36.80 L 148.40 41.00 L 148.10 45.40 L 147.00 50.40 L 144.90 56.40 L 141.80 63.30 L 137.40 71.40 L 131.40 80.80 L 123.60 91.60 L 113.70 104.10 L 111.10 106.20 L 107.80 106.90 L 104.60 106.20 L 101.90 104.10 L 91.60 91.00 L 84.00 80.30 L 78.10 71.00 L 73.70 63.10 L 70.70 56.20 L 68.70 50.30 L 67.60 45.30 L 67.30 41.00 L 67.50 36.80 L 68.10 32.70 L 69.00 28.80 L 70.40 25.10 L 74.10 18.10 L 79.10 12.10 L 85.10 7.10 L 92.00 3.30 L 95.70 1.90 L 99.60 0.90 L 103.60 0.20 L 107.80 0.00 Z M 107.80 27.20 L 105.00 27.50 L 102.30 28.20 L 99.80 29.50 L 97.70 31.20 L 95.90 33.30 L 94.50 35.90 L 93.60 38.60 L 93.30 41.40 L 93.60 44.10 L 94.30 46.80 L 95.60 49.20 L 97.40 51.50 L 99.60 53.30 L 102.10 54.60 L 104.70 55.40 L 107.50 55.70 L 110.20 55.50 L 113.00 54.70 L 115.50 53.30 L 117.60 51.60 L 119.40 49.40 L 120.70 47.00 L 121.50 44.40 L 121.80 41.50 L 121.60 38.70 L 120.80 36.10 L 119.50 33.60 L 117.80 31.50 L 115.60 29.70 L 113.20 28.40 L 110.60 27.50 L 107.80 27.20 Z" fill="url(#未命名的渐变_248)" fill-rule="nonzero" group-id="1,2" id="path-5" node-id="56" stroke="none" target-height="106.9" target-width="81.09999" target-x="67.3" target-y="0"></path></g><g node-id="227"><path d="M 115.50 0.00 L 119.70 0.30 L 123.70 0.90 L 127.60 1.90 L 131.30 3.30 L 138.20 7.10 L 144.20 12.10 L 149.20 18.20 L 152.90 25.10 L 154.20 28.80 L 155.20 32.70 L 155.80 36.80 L 156.00 41.00 L 155.70 45.40 L 154.60 50.40 L 152.50 56.40 L 149.40 63.30 L 145.00 71.40 L 139.00 80.80 L 131.20 91.60 L 121.30 104.10 L 118.70 106.20 L 115.40 106.90 L 112.20 106.20 L 109.60 104.10 L 99.20 91.00 L 91.60 80.30 L 85.70 71.00 L 81.30 63.10 L 78.30 56.20 L 76.30 50.30 L 75.20 45.30 L 74.90 41.00 L 75.60 33.00 L 77.90 25.40 L 81.60 18.30 L 86.70 12.10 L 92.90 7.00 L 99.90 3.20 L 107.40 0.80 L 115.50 0.00 Z M 115.50 27.20 L 112.60 27.50 L 109.90 28.20 L 107.50 29.50 L 105.30 31.20 L 103.50 33.30 L 102.10 35.90 L 101.20 38.60 L 100.90 41.40 L 101.20 44.10 L 102.00 46.80 L 103.20 49.20 L 105.00 51.50 L 107.30 53.30 L 109.70 54.60 L 112.30 55.40 L 115.10 55.70 L 117.80 55.50 L 120.60 54.70 L 123.10 53.30 L 125.30 51.60 L 127.00 49.40 L 128.30 47.00 L 129.20 44.40 L 129.50 41.50 L 129.20 38.70 L 128.40 36.10 L 127.20 33.60 L 125.40 31.50 L 123.30 29.70 L 120.80 28.40 L 118.20 27.50 L 115.50 27.20 Z" fill="url(#未命名的渐变_234)" fill-rule="nonzero" group-id="1,3" id="path-5-2" node-id="58" stroke="none" target-height="106.9" target-width="81.1" target-x="74.9" target-y="0"></path></g><path d="M 143.70 56.00 L 141.40 57.30 L 141.40 57.60 L 142.00 57.80 L 141.60 58.20 L 140.10 58.90 L 140.20 59.60 L 140.70 60.10 L 141.70 60.20 L 143.70 59.80 L 145.30 58.90 Z" fill="#fed4c2" fill-rule="nonzero" group-id="1" node-id="186" stroke="none" target-height="4.200001" target-width="5.199997" target-x="140.1" target-y="56"></path><g node-id="228"><path d="M 160.40 109.50 L 157.60 109.50 L 157.60 106.20 L 160.40 106.20 Z" fill="#feb99b" fill-rule="nonzero" group-id="1,4" node-id="190" stroke="none" target-height="3.300003" target-width="2.7999878" target-x="157.6" target-y="106.2"></path></g><path d="M 163.60 65.80 L 162.10 77.50 L 161.30 81.20 L 162.00 87.30 L 162.00 92.70 L 161.60 98.70 L 160.50 106.80 L 157.40 106.80 L 154.10 78.60 L 153.50 70.50 L 153.60 65.80 Z" fill="#343434" fill-rule="nonzero" group-id="1" node-id="193" stroke="none" target-height="41" target-width="10.100006" target-x="153.5" target-y="65.8"></path><path d="M 160.70 107.60 L 161.10 107.90 L 161.10 110.40 L 160.40 110.90 L 152.90 110.90 L 152.60 110.80 L 152.50 110.30 L 153.00 109.40 L 153.60 109.00 L 155.50 108.50 L 157.40 107.50 L 159.00 107.90 L 160.70 107.60 Z" fill="#000000" fill-rule="nonzero" group-id="1" node-id="195" stroke="none" target-height="3.4000015" target-width="8.600006" target-x="152.5" target-y="107.5"></path><g node-id="229"><path d="M 164.10 109.50 L 161.30 109.50 L 161.30 106.20 L 164.10 106.20 Z" fill="#ffd5c3" fill-rule="nonzero" group-id="1,5" node-id="199" stroke="none" target-height="3.300003" target-width="2.800003" target-x="161.3" target-y="106.2"></path></g><path d="M 167.20 65.80 L 165.80 77.50 L 165.00 81.20 L 165.70 87.30 L 165.70 92.70 L 165.30 98.70 L 164.20 106.80 L 161.10 106.80 L 157.80 78.60 L 157.20 70.50 L 157.30 65.80 Z" fill="#5c5c5c" fill-rule="nonzero" group-id="1" node-id="202" stroke="none" target-height="41" target-width="10" target-x="157.2" target-y="65.8"></path><path d="M 164.30 107.60 L 164.70 107.90 L 164.80 110.40 L 164.10 110.90 L 156.60 110.90 L 156.20 110.30 L 156.70 109.40 L 157.20 109.00 L 159.10 108.50 L 161.10 107.50 L 162.70 107.90 L 164.30 107.60 Z" fill="#3e3e3e" fill-rule="nonzero" group-id="1" node-id="204" stroke="none" target-height="3.4000015" target-width="8.600006" target-x="156.2" target-y="107.5"></path><g node-id="230"><path d="M 161.40 40.30 L 157.90 40.30 L 157.90 33.90 L 161.40 33.90 Z" fill="#feb99b" fill-rule="nonzero" group-id="1,6" node-id="208" stroke="none" target-height="6.3999977" target-width="3.5" target-x="157.9" target-y="33.9"></path></g><path d="M 155.30 30.60 L 156.10 35.60 L 157.00 36.70 L 158.80 36.40 L 160.70 35.40 L 161.80 34.10 L 162.00 33.40 L 161.20 30.10 L 157.70 28.50 L 155.30 29.70 Z" fill="#ffd5c3" fill-rule="nonzero" group-id="1" node-id="211" stroke="none" target-height="8.200001" target-width="6.699997" target-x="155.3" target-y="28.5"></path><path d="M 161.90 34.90 L 161.40 34.60 L 161.20 33.90 L 161.90 33.00 L 161.90 32.50 L 161.20 31.60 L 160.80 31.70 L 160.10 32.60 L 158.60 29.90 L 157.10 29.40 L 155.70 30.00 L 155.50 31.40 L 155.00 29.90 L 154.80 31.00 L 154.70 29.40 L 155.10 28.50 L 156.00 27.80 L 158.20 26.90 L 160.00 26.90 L 161.20 27.80 L 162.60 28.20 L 163.30 29.50 L 163.40 31.70 L 162.10 34.00 L 161.90 34.90 Z" fill="#301b20" fill-rule="nonzero" group-id="1" node-id="213" stroke="none" target-height="8.000002" target-width="8.699997" target-x="154.7" target-y="26.9"></path><path d="M 157.90 38.10 L 158.30 39.50 L 158.90 40.00 L 160.00 39.30 L 161.50 37.10 L 164.60 38.70 L 166.80 40.20 L 168.00 42.00 L 168.30 54.50 L 168.00 55.30 L 168.00 65.80 L 153.00 65.80 L 153.00 41.80 L 153.80 40.20 L 154.70 39.20 L 155.90 38.50 L 157.90 38.10 Z" fill="url(#未命名的渐变_18)" fill-rule="nonzero" group-id="1" node-id="215" stroke="none" target-height="28.700005" target-width="15.300003" target-x="153" target-y="37.1"></path><path d="M 157.70 61.10 L 159.20 58.90 L 161.50 53.60 L 163.70 44.80 L 163.80 53.40 L 163.60 54.10 Z" fill="#007adc" fill-rule="nonzero" group-id="1" node-id="217" stroke="none" target-height="16.3" target-width="6.100006" target-x="157.7" target-y="44.8"></path><path d="M 156.40 65.60 L 159.50 62.70 L 160.70 63.80 L 168.00 55.40 L 168.00 59.10 L 165.80 61.40 L 161.90 64.10 L 159.40 65.10 L 156.40 65.60 Z" fill="#007adc" fill-rule="nonzero" group-id="1" node-id="219" stroke="none" target-height="10.199997" target-width="11.600006" target-x="156.4" target-y="55.4"></path><path d="M 153.10 54.20 L 144.60 59.70 L 142.80 56.20 L 150.90 50.50 L 151.30 49.80 L 153.10 41.80 Z" fill="url(#未命名的渐变_18-2)" fill-rule="nonzero" group-id="1" node-id="221" stroke="none" target-height="17.900002" target-width="10.300003" target-x="142.8" target-y="41.8"></path><path d="M 156.00 64.50 L 157.10 63.60 L 157.20 63.10 L 156.70 63.00 L 156.60 62.70 L 157.90 61.30 L 160.40 63.60 L 157.80 65.50 L 156.80 65.70 L 156.10 65.40 L 155.80 64.70 L 156.00 64.50 Z" fill="#fed4c2" fill-rule="nonzero" group-id="1" node-id="223" stroke="none" target-height="4.3999977" target-width="4.599991" target-x="155.8" target-y="61.3"></path></g></svg>