<?xml version="1.0" standalone="no"?><!DOCTYPE svg PUBLIC "-//W3C//DTD SVG 1.1//EN"
        "http://www.w3.org/Graphics/SVG/1.1/DTD/svg11.dtd">
<svg t="1750248396468" class="icon" viewBox="0 0 1024 1024" version="1.1" xmlns="http://www.w3.org/2000/svg" p-id="1557"
     xmlns:xlink="http://www.w3.org/1999/xlink" width="200" height="200">
    <path d="M750.151048 680.464516l-8.91871 6.936774-3.963871 2.972904c-202.818065 143.36-223.298065 277.470968-225.28 321.734193-11.891613-180.356129-157.563871-271.194839-210.085161-310.172903a381.852903 381.852903 0 1 1 528.516129-108.345807 386.147097 386.147097 0 0 1-80.268387 86.874839zM511.988467 1024z"
          fill="#01ADEB" p-id="1558"></path>
    <path d="M511.988467 382.513548m-292.005161 0a292.005161 292.005161 0 1 0 584.010322 0 292.005161 292.005161 0 1 0-584.010322 0Z"
          fill="#01ADEB" p-id="1559"></path>
    <path d="M673.516209 228.913548H350.791048a16.185806 16.185806 0 0 0-16.185807 16.185807V462.451613a16.185806 16.185806 0 0 0 16.185807 16.185806h322.725161a16.185806 16.185806 0 0 0 16.185806-16.185806V245.099355a16.185806 16.185806 0 0 0-16.185806-16.185807z m-229.243871 181.347097h-31.050323v27.747097l-19.158709 6.606452V363.354839l19.158709 3.633548v25.104516h19.819355l5.945807-16.846451 22.131613 11.56129z m94.802581 5.285161l-5.945807 5.615484h-10.900645L399.348467 346.83871l11.230968-11.891613 105.703226 68.707097a92.16 92.16 0 0 1 11.891612 6.606451l16.846452-11.891613z m-5.945807-17.507096h-10.24L400.009112 324.046452v-11.561291l22.131613-35.014193h16.185806l139.726452 91.829677zM581.356209 330.322581h-15.855484v14.203871l-9.909677 3.303225V306.209032l9.909677 1.651613v12.882581h10.24l2.972903-8.588387 11.561291 5.945806z m49.218064 2.64258l-2.972903 2.972904h-5.945806L559.554919 297.290323l5.615483-5.945807 54.833549 35.674839a29.729032 29.729032 0 0 1 5.615484 3.303226l8.918709-5.945807z m-2.972903-8.918709h-5.615484L559.554919 285.39871v-5.945807l11.56129-18.167742h8.258064l72.340646 47.566452zM387.126531 519.597419h242.126452v16.185807H387.126531z"
          fill="#FFFFFF" p-id="1560"></path>
</svg>