<?xml version="1.0" standalone="no"?><!DOCTYPE svg PUBLIC "-//W3C//DTD SVG 1.1//EN"
        "http://www.w3.org/Graphics/SVG/1.1/DTD/svg11.dtd">
<svg t="1750247604069" class="icon" viewBox="0 0 1024 1024" version="1.1" xmlns="http://www.w3.org/2000/svg" p-id="3450"
     xmlns:xlink="http://www.w3.org/1999/xlink" width="200" height="200">
    <path d="M872.414825 399.178801c0-199.048508-161.366317-360.414825-360.437362-360.414825-199.048508 0-360.414825 161.366317-360.414825 360.414825 0 81.224051 26.864337 156.160225 72.186636 216.424685h-0.022537L502.804824 985.236024h9.172639l288.250726-369.632538c45.322299-60.26446 72.186636-135.223171 72.186636-216.424685z"
          fill="#666666" p-id="3451"></path>
    <path d="M512 395.820759m-283.810899 0a283.810899 283.810899 0 1 0 567.621798 0 283.810899 283.810899 0 1 0-567.621798 0Z"
          fill="#FFFFFF" p-id="3452"></path>
    <path d="M465.686064 201.099393c33.715644-4.755348 61.54908-4.529976 92.447575 0 21.072277 4.484902 42.460076 7.978167 63.194295 13.725151 15.370367 4.25953 26.481204 14.671714 31.98028 30.605511a2192.395809 2192.395809 0 0 0 27.450303 74.936174c1.622678 4.146844 6.963993 10.209349 9.893829 9.916366 20.238401-2.298794 29.749098 8.947266 35.946826 25.55718 1.44238 5.070869 0.608504 10.209349 0 13.567391l-24.610617 6.783696c1.104323 8.766969 3.042521 17.646624 3.110133 26.503741 0.338058 40.566951 0.56343 81.133903-0.225372 121.65578-0.135223 7.211902-4.327141 18.4805-7.211902 20.306013-2.749538 4.732811-64.11832 4.507439-68.896206 1.239546-15.956334-10.344573-6.130117-27.743287-11.268597-41.806498H409.050092c-4.056695 14.897086-6.423101 39.913373-11.291134 41.806498-10.615019 4.079232-67.476362 4.214455-70.676644 0-4.282067-3.065059-7.211902-15.34783-7.79787-23.258386-1.171934-17.083194-0.495818-34.256537-0.338058-51.407342 0.338058-31.845057 0.788802-63.690114 1.262083-95.738005-6.017431-1.577604-14.513954-3.808786-23.010476-6.085043-0.473281-3.065059-1.081785-6.783696 0-10.817854 5.904745-17.556475 14.559028-31.123867 36.690554-28.28418 2.659389 0.338058 7.572498-5.38639 9.037415-9.195175 7.572498-19.832732 15.685888-39.620389 21.072277-60.061625 9.08249-34.369223 33.918479-48.20706 65.628313-54.314641 11.967251-2.276257 24.02465-3.786249 36.059512-5.634298z m-95.152038 135.7866c95.783079 19.832732 187.599613 20.283476 281.760014 0-7.888018-24.385245-15.821111-46.04349-21.816005-68.175015-5.138481-19.021393-17.466326-28.396866-35.789066-29.185668-44.668721-2.00581-89.337442-3.605951-134.0287-3.966546-14.694251-0.112686-29.636412 3.380579-44.060216 6.82877-5.972357 1.44238-13.815301 5.972357-15.843648 11.065763-10.637556 26.661502-19.697509 53.908971-30.222379 83.432696z m18.32274 103.603487c0.090149-0.518355 0 0.495818 0 0 7.707721 0 15.730962-0.247909 23.010476-1.960736 5.318778-1.239546 12.012325-5.54415 13.702615-10.074127 1.171934-3.222819-3.921472-11.49397-8.113391-13.477242a501.227221 501.227221 0 0 0-53.818822-21.477947c-9.127564-2.997447-19.336913-2.41148-22.289286 10.592481-4.25953 19.066467-0.247909 29.636412 13.973061 32.656396 10.998151 2.25372 22.401972 2.56924 33.535347 3.741175z m248.269742-0.067612c9.893829-1.149397 22.131526-1.622678 33.895941-4.327141 16.06902-3.6961 12.688441-17.240954 12.305309-28.712387-0.338058-9.80368-6.400563-17.173343-15.257681-14.423805-22.108988 6.851307-44.082754 14.94216-64.862048 25.016287-9.555771 4.620125-6.10758 17.421252 4.732811 19.855269 8.721895 1.893124 17.871996 1.667752 29.185668 2.591777z m0 0"
          fill="#666666" p-id="3453"></path>
</svg>