<?xml version="1.0" standalone="no"?><!DOCTYPE svg PUBLIC "-//W3C//DTD SVG 1.1//EN" "http://www.w3.org/Graphics/SVG/1.1/DTD/svg11.dtd"><svg t="1750246802604" class="icon" viewBox="0 0 1024 1024" version="1.1" xmlns="http://www.w3.org/2000/svg" p-id="4633" xmlns:xlink="http://www.w3.org/1999/xlink" width="200" height="200"><path d="M512.000402 100.392157C323.463931 100.392157 170.667068 253.931922 170.667068 443.693176a342.738824 342.738824 0 0 0 100.050824 242.748236L512.000402 929.189647l241.282509-242.748235A344.646275 344.646275 0 0 0 853.333735 443.693176C853.092794 253.931922 700.295931 100.392157 512.000402 100.392157z" fill="#FFFFFF" p-id="4634"></path><path d="M510.554755 140.54902C344.988009 140.54902 210.823931 275.375686 210.823931 442.006588c0 83.32549 33.53098 158.619608 87.863216 213.152628l211.867608 213.152627L722.402284 655.159216a302.622118 302.622118 0 0 0 87.863216-213.152628C810.064715 275.355608 675.880558 140.54902 510.554755 140.54902z" fill="#4986F2" p-id="4635"></path><path d="M351.372951 261.019608h321.254902v321.254902H351.372951z" fill="#D8D8D8" fill-opacity="0" p-id="4636"></path><path d="M550.450598 447.407686c21.082353-20.941804 37.024627-54.894431 37.024627-88.304941 0-51.2-34.795922-78.004706-75.494902-78.004706-40.69898 0-75.474824 26.804706-75.474823 78.004706 0 33.41051 15.942275 67.363137 37.024627 88.304941 8.232157 20.981961-6.505412 28.692078-9.557333 29.876706C387.775147 506.719373 371.451382 546.494745 371.451382 546.494745V562.196078h281.098039v-15.701333s-16.343843-39.775373-92.561568-69.210353c-3.011765-1.184627-17.749333-8.894745-9.537255-29.876706z" fill="#FFFFFF" p-id="4637"></path></svg>