<?xml version="1.0" standalone="no"?><!DOCTYPE svg PUBLIC "-//W3C//DTD SVG 1.1//EN"
        "http://www.w3.org/Graphics/SVG/1.1/DTD/svg11.dtd">
<svg t="1752987202894" class="icon" viewBox="0 0 1024 1024" version="1.1" xmlns="http://www.w3.org/2000/svg" p-id="3876"
     xmlns:xlink="http://www.w3.org/1999/xlink" width="200" height="200">
    <path d="M755.19 961.53c59.35-3.71 111.29-22.26 150.23-61.21 29.67-29.67 48.23-66.77 55.65-111.28-1.86-22.26-12.99-40.8-33.39-51.93L775.6 655.5c-31.53-16.69-72.33-3.71-89.03 27.82l-63.06 79.75c-81.61-25.96-152.08-64.92-224.42-137.25-72.33-74.19-111.28-144.67-137.25-226.27l77.9-63.06c31.53-16.69 42.66-57.5 25.97-89.03L284.1 97.24v-1.85C272.98 76.84 258.14 65.71 239.59 62c-44.51 7.42-83.46 27.82-113.14 57.5-38.94 38.94-59.35 90.88-63.05 152.08-7.42 137.25 74.19 317.15 222.56 467.38 150.23 150.23 330.13 229.98 469.23 222.57z m110.58-841.05L692.25 293.99V244h-93.82v210.19l209.01 1.92v-93.63l-49.61-0.81L932.4 187.1l-66.63-66.62z"
          fill="#1296db" p-id="3877"></path>
</svg>