<?xml version="1.0" standalone="no"?><!DOCTYPE svg PUBLIC "-//W3C//DTD SVG 1.1//EN" "http://www.w3.org/Graphics/SVG/1.1/DTD/svg11.dtd"><svg t="1749495100245" class="icon" viewBox="0 0 1024 1024" version="1.1" xmlns="http://www.w3.org/2000/svg" p-id="1497" xmlns:xlink="http://www.w3.org/1999/xlink" width="200" height="200"><path d="M240.256936 676.79282c1.365507 0.455169 2.731013 0.903113 3.641351 1.358282-0.910338-0.903113-2.275845-1.358282-3.641351-1.358282z" p-id="1498" fill="#ffffff"></path><path d="M928.602376 282.53707h-158.145909c-6.415714 0-11.921091 5.498151-11.92109 12.36181v35.264753c0 6.870883 5.498151 12.36181 11.92109 12.361809h36.673609V396.647193c-8.164141-1.416081-16.573928-2.124122-25.272711-2.124121-10.671182 0-21.725284 0.975362-33.422403 3.034459-15.128948-15.945362-32.418141-29.340332-51.882031-39.845342-42.764203-22.209353-94.16939-27.649705-140.574944-14.500381-25.01984-74.784974-95.079728-126.002314-175.601276-126.002314-84.618068 0-159.22242 58.015974-179.697796 139.144413-71.425394 26.739367-118.734061 93.822595-118.734061 170.413795 0 89.285355 64.142692 164.525499 152.402111 179.481049 5.462027 0.455169 15.013349 0.903113 35.026331 0.903113h14.55818c5.071882 9.717495 14.9411 16.328282 26.652669 16.328282 16.703977 0 30.330144-14.153586 30.330144-31.500579s-13.626168-31.493354-30.330144-31.493354c-11.697119 0-21.551887 6.589112-26.630994 16.292157-20.858296-0.021675-40.040414-0.101149-44.606553-0.447944C165.645359 664.09144 112.419496 601.090283 112.419496 526.760478c0-66.17289 42.309034-124.188863 105.541388-144.584766 5.462027-1.813451 9.096153-5.895521 10.46166-11.328649 14.55818-71.158073 78.700872-123.278526 151.946942-123.278525 71.880563 0 133.747411 48.493551 150.581435 118.293342 0.910338 4.08207 4.09652 7.701747 7.730647 9.970367 3.641351 1.813451 8.185815 2.26862 12.282336 0.455169 42.309034-15.410719 91.438377-12.694155 131.471566 8.156916 11.140801 6.105043 21.595236 13.236023 31.168233 21.486862C632.540287 427.902125 411.342647 491.589648 409.232975 492.015917c-2.21082 0.628567-4.074845 1.813451-5.534276 3.352356-10.028166 6.047244-17.065222 18.156182-18.553552 32.158044C382.919877 551.549121 394.869867 600.389467 497.152824 657.870798c3.251207 6.451839 6.892558 12.809754 10.924053 18.958147H434.99698c-5.375328-9.717495-15.728615-16.328282-27.584681-16.328282-17.802162 0-31.493354 14.153586-31.493353 31.493354 0 17.346993 13.691192 31.500579 31.493353 31.500578 11.856066 0 22.209353-6.610787 27.584681-16.328281h98.807778c3.301781 2.96221 6.740835 5.772698 10.353287 8.388113 18.633026 13.221573 39.079502 19.608388 59.981147 19.608387 0.390145 0 0.78029-0.007225 1.170435-0.007225 0.072249 0 0.144498 0.007225 0.223972 0.007225 0.036125 0 0.079474-0.007225 0.115598-0.014449 5.794372-0.065024 11.263624-0.512968 17.123021-1.351057 31.35608-5.469252 72.249033-14.594305 124.961928-27.815878l80.882793-20.063557c4.089295-1.365507 7.723422-2.283069 10.902379-2.738238 30.366269-7.196004 51.325713-30.496317 58.904637-64.431688 12.231761-2.810487 19.81791-4.638388 20.056332-4.761211 4.537239-0.903113 8.171366-4.537239 9.074478-9.067254 0.903113-4.060396 19.796235-98.013039-34.246041-157.459544V342.532667h35.293652c6.415714 0 11.921091-5.498151 11.921091-12.361809v-35.264754c0-6.870883-5.498151-12.369035-11.921091-12.369034z m-684.704089 395.614032c-0.910338-0.455169-2.275845-0.903113-3.641351-1.358282 1.365507 0 2.731013 0.455169 3.641351 1.358282zM409.261875 529.802162c0.447944-8.200265 4.912934-13.207123 8.041317-14.57263 0.021675-0.007225 0.036125-0.01445 0.057799-0.021675 4.118195-0.643016 13.727316-1.8857 26.818841-1.8857 11.111901 0 24.644145 0.910338 39.63582 3.706376-6.70471 14.825502-12.658031 39.708069-6.914232 77.68216 1.184884 8.142466 3.106708 17.065222 5.808822 26.349223-71.172523-46.69455-74.647701-81.056191-73.448367-91.257754z m91.264978 61.259955c-5.454802-37.331076 2.22527-58.528942 7.369402-68.101939a214.030537 214.030537 0 0 1 47.47484 21.190642c0.874213 0.527418 1.726752 1.069286 2.586515 1.603928-4.623938 14.196935-9.529648 39.093952-0.758615 66.389637 8.872181 27.606356 23.061891 38.653233 33.263455 42.793103 5.324754 2.297519 10.201564 3.222307 15.519093 3.222307 6.654136 0 13.301047-1.84235 19.514464-5.064658 12.311235-6.813084 20.432027-19.536139 22.982417-36.341263 4.269918 3.35958 8.532611 6.560212 12.802529 9.572996 1.770101 68.318686-31.717326 80.817769-57.560805 84.336297-0.498518 0.072249-0.982587 0.187847-1.459431 0.325121-15.526317-0.361245-30.048373-5.563176-43.566167-15.056699-34.990207-25.070415-53.168064-72.49468-58.167697-104.869472z m121.566224 3.879773c1.062061 0.895888 2.124122 1.791776 3.178958 2.687664 1.11986 6.950357 0.838089 27.31736-10.85903 33.393504-3.547428 2.297519-8.872181 3.677476-15.078373 1.379956-7.983518-3.222307-14.637654-13.344396-19.514464-27.606356-5.678774-17.412017-3.937572-33.819773-1.199334-45.032822 15.547992 11.379223 29.614879 23.488161 43.472243 35.178054z m211.971439 64.518387c-3.178957 0.910338-6.813084 1.820676-11.357548 2.738239l-80.882793 20.518725c-27.736404 6.834759-52.214376 12.499083-73.722913 17.123021 10.114865-15.085598 15.779189-34.845709 16.942398-59.229758 13.604493 6.589112 27.873677 10.555584 43.71789 10.555584 4.992408 0 10.439985-0.455169 15.432393-1.358282 37.699546-5.751023 89.596026-16.638952 126.941552-24.904242-5.476477 14.334208-16.097085 29.535405-37.070979 34.556713z m71.244772-67.242175c-26.327548 5.895521-110.288149 25.395535-164.756696 34.00762-4.08207 0.455169-7.716197 0.910338-11.798267 0.910338-16.371631 0-31.298281-6.032794-46.456128-15.714165a11.745525 11.745525 0 0 0-5.353654-3.561878c-10.497785-7.239353-21.190641-16.082635-32.642113-25.764005-0.585217-0.787514-1.228234-1.51723-1.950724-2.153021-0.76584-0.650241-1.596704-1.170434-2.470917-1.596704-0.78029-0.664691-1.560579-1.322157-2.348093-1.994073-15.844213-13.308272-33.407953-28.321621-53.355912-42.113962-1.040386-2.398668-2.824937-4.486665-5.238055-5.837721a11.284577 11.284577 0 0 0-5.722123-1.452206c-1.690627-1.076511-3.395705-2.145796-5.122456-3.193407-19.514464-11.892191-39.028928-19.933508-57.134536-25.178788-2.59374-2.066322-5.844947-2.846612-8.937206-2.398668-3.619677-0.888663-7.167104-1.676178-10.635057-2.355319 80.788869-23.126916 203.33768-58.037649 243.732114-68.470409 17.245844-4.537239 32.678238-6.798634 46.752349-6.798634 35.857195 0 64.453363 13.604493 93.042306 44.433156 38.566534 41.268648 33.118957 107.470437 30.395168 129.231846z m10.916829-274.416279h-35.293653c-6.878108 0-12.376259 5.498151-12.376259 12.36181v94.256089c-11.913866-9.240651-24.225101-16.248808-37.128779-21.147292v-73.116022c0-6.870883-5.042983-12.36181-11.92109-12.36181h-36.673609v-10.533909h133.39339v10.541134z" p-id="1499" fill="#ffffff"></path></svg>