<?xml version="1.0" standalone="no"?><!DOCTYPE svg PUBLIC "-//W3C//DTD SVG 1.1//EN" "http://www.w3.org/Graphics/SVG/1.1/DTD/svg11.dtd"><svg t="1722918984203" class="icon" viewBox="0 0 1349 1024" version="1.1" xmlns="http://www.w3.org/2000/svg" p-id="143071" xmlns:xlink="http://www.w3.org/1999/xlink" width="84.3125" height="64"><path d="M674.909091 512m-488.727273 0a488.727273 488.727273 0 1 0 977.454546 0 488.727273 488.727273 0 1 0-977.454546 0Z" fill="#FFFFFF" opacity=".85" p-id="143072"></path><path d="M674.885818 202.123636c101.073455 0 190.743273 49.338182 246.690909 125.672728l39.168 10.589091c-58.321455-97.768727-164.584727-163.234909-285.858909-163.23491-58.577455 0-113.710545 15.290182-161.652363 41.984l39.051636 10.589091a305.198545 305.198545 0 0 1 122.600727-25.6z m201.495273-17.570909l21.410909 17.431273 6.632727-26.298182 24.040728-14.196363-24.040728-14.219637-6.656-26.298182-21.387636 17.454546-28.020364-2.164364 10.752 24.948364-10.752 24.948363 28.020364-1.62909z m-371.665455-58.740363l-22.039272-15.429819-4.910546 27.485091-22.574545 17.035637 24.296727 11.799272 8.098909 26.01891 19.921455-20.247273 27.624727-0.791273-11.938909-24.296727 9.029818-26.530909-27.508364 4.957091z m206.429091-37.841455l-16.337454-21.457454-12.893091 24.66909-26.554182 9.262546 19.525818 18.641454-0.139636 27.229091 24.971636-13.125818 26.577455 7.493818-4.119273-26.693818 16.477091-22.528-27.508364-3.490909z m298.612364 169.006546l-23.109818-16.104728-3.328 26.973091-21.643637 16.081455 25.111273 12.613818 9.681455 26.158545 18.850909-19.176727 27.787636 0.116364-13.568-24.529455 7.447273-26.018909-27.229091 3.886546z m300.450909 203.729454L150.085818 146.850909a53.364364 53.364364 0 0 0-65.373091 38.097455L1.815273 497.338182c-7.586909 28.695273 9.309091 58.344727 37.701818 65.978182L1199.709091 877.149091a53.364364 53.364364 0 0 0 65.349818-38.097455L1347.956364 526.661818a53.783273 53.783273 0 0 0-37.725091-65.978182z m8.517818 72.145455L1242.763636 819.2a40.098909 40.098909 0 0 1-49.012363 28.578909L59.461818 540.765091a40.564364 40.564364 0 0 1-28.299636-49.477818L107.147636 204.939636A40.098909 40.098909 0 0 1 156.16 176.360727L1290.565818 483.374545c21.248 5.632 33.885091 27.764364 28.16 49.477819zM674.909091 26.833455c222.370909 0 409.390545 152.482909 464.244364 359.563636l29.626181 7.912727C1116.020364 168.331636 914.920727 0 675.025455 0c-145.594182 0-276.712727 61.952-369.291637 160.954182l29.486546 7.912727C422.097455 81.128727 542.184727 26.833455 674.909091 26.833455z m122.461091 769.442909A303.243636 303.243636 0 0 1 674.909091 821.992727c-101.096727 0-190.743273-49.338182-246.690909-125.672727l-39.168-10.589091c58.298182 97.768727 164.584727 163.211636 285.858909 163.211636 58.577455 0 113.710545-15.290182 161.652364-41.960727l-39.191273-10.728727z m-286.254546 55.924363l-21.248-17.454545-6.632727 26.298182-23.784727 14.196363 23.784727 14.242909 6.632727 26.298182 21.248-17.454545 27.904 2.024727-10.752-24.948364 10.752-24.948363-27.904 1.745454z m163.653819 83.013818l16.197818 21.457455 12.753454-24.552727 26.437818-9.239273-19.386181-18.781091 0.139636-27.089454-24.715636 13.14909-26.298182-7.51709 4.119273 26.693818-16.477091 22.528 27.229091 3.351272z m-337.268364-169.402181l21.783273 17.710545 5.189818-26.693818 22.714182-14.475636-24.040728-14.359273-7.703272-26.530909-20.061091 17.826909-27.508364-2.024727 11.706182 25.227636-9.309091 25.344 27.229091-2.024727zM674.909091 997.166545c-222.370909 0-409.390545-152.482909-464.267636-359.563636l-29.60291-7.912727C233.728 855.668364 434.850909 1024 674.746182 1024c145.594182 0 276.712727-61.952 369.291636-160.954182l-29.509818-7.912727c-86.737455 87.738182-206.941091 142.033455-339.642182 142.033454z m193.000727-98.978909l21.922909 15.429819 4.770909-27.229091 22.341819-16.896-24.203637-11.799273-8.098909-26.018909-19.525818 20.107636-27.345455 0.814546 11.938909 24.133818-8.773818 26.554182 26.996364-5.096728z" fill="#000000" fill-opacity=".255" p-id="143073"></path><path d="M332.776727 515.653818l7.214546-26.996363L228.072727 458.705455l15.592728-58.27491 100.910545 27.04291 7.214545-26.996364-100.887272-26.996364 14.312727-53.434182 107.380364 28.765091 7.214545-26.973091-138.938182-37.236363-51.595636 192.628363 143.522909 38.446546z m48.267637 12.939637l48.872727-42.123637 21.015273 60.834909 36.142545 9.681455-34.350545-88.692364 65.512727-52.433454-35.886546-9.611637-40.261818 34.909091-17.733818-50.432-35.863273-9.634909 30.510546 78.149818-74.100364 59.671273 36.142546 9.681455z m140.008727 94.743272l19.432727-72.564363c7.284364 18.152727 19.223273 29.742545 35.397818 34.071272 19.968 5.352727 37.841455 2.327273 53.061819-9.192727 14.126545-10.682182 24.087273-26.228364 29.579636-46.731636 5.771636-21.573818 5.003636-40.285091-2.164364-56.669091-7.959273-17.757091-22.202182-29.370182-42.705454-34.862546-18.338909-4.910545-34.024727-2.466909-47.057455 7.330909l3.956364-14.824727-28.578909-7.68-51.665455 192.884364 30.72 8.238545z m54.202182-65.256727c-9.984-2.676364-16.989091-8.890182-21.294546-18.734545-4.887273-10.845091-5.236364-23.645091-1.326545-38.213819l0.581818-2.164363c3.746909-14.033455 9.425455-24.366545 17.594182-31.138909 9.076364-7.982545 19.479273-10.100364 31.604363-6.842182 13.498182 3.607273 22.178909 11.147636 26.065455 22.574545 2.932364 9.472 2.536727 21.806545-1.512727 36.910546s-10.123636 25.902545-17.966546 32.488727c-8.773818 6.888727-20.247273 8.727273-33.745454 5.12z m154.228363-102.958545a21.527273 21.527273 0 0 0 16.337455-1.69891 20.433455 20.433455 0 0 0 10.193454-13.172363 20.619636 20.619636 0 0 0-2.048-16.151273 22.202182 22.202182 0 0 0-13.568-9.704727 21.527273 21.527273 0 0 0-16.360727 1.675636 19.595636 19.595636 0 0 0-9.844363 12.986182 20.619636 20.619636 0 0 0 1.954909 16.430545c3.025455 4.864 7.400727 8.052364 13.335272 9.63491z m-26.344727 159.767272l37.376-139.450182-30.743273-8.238545-37.376 139.450182 30.743273 8.238545z m68.514909 18.385455l19.805091-73.937455c3.188364-11.869091 9.216-20.363636 18.734546-25.623272 8.215273-4.747636 16.290909-5.771636 24.366545-3.584 6.493091 1.722182 12.730182 4.282182 19.176727 8.308363l8.238546-30.743273c-4.189091-3.723636-9.844364-6.4-16.593455-8.215272-8.610909-2.327273-16.570182-1.838545-24.133818 1.629091-6.144 2.397091-11.915636 6.632727-17.570909 12.637091l5.352727-19.968-30.487273-8.145455-37.352727 139.450182 30.487273 8.168727z m130.094546 38.865454c18.618182 5.003636 35.444364 3.723636 50.664727-3.467636 12.032-6.027636 21.457455-15.36 28.16-27.438545l-30.72-8.238546c-5.888 6.818909-11.450182 11.403636-16.989091 13.684364-7.074909 2.722909-15.220364 2.839273-24.669091 0.325818-11.054545-2.978909-18.734545-8.797091-22.877091-17.128727-4.119273-8.331636-4.957091-19.246545-2.56-32.488728l104.401455 27.973819c6.702545-25.088 6.330182-46.312727-0.977455-63.301819-7.936-18.874182-23.458909-31.138909-46.382545-37.282909-20.782545-5.585455-39.098182-2.955636-54.807273 8.145455-16.174545 10.705455-26.740364 26.391273-32.302545 47.150545-6.213818 23.202909-4.584727 43.008 4.840727 59.694546 8.727273 15.941818 23.458909 26.833455 44.218182 32.395636z m59.508363-78.568727l-71.749818-19.246545c4.864-10.542545 10.868364-17.896727 18.059636-22.039273 7.517091-4.352 16.058182-4.957091 26.298182-2.210909 21.597091 5.794909 30.766545 20.107636 27.392 43.496727z m92.090182 119.202909c18.362182 4.910545 34.048 2.466909 47.080727-7.330909l-3.956363 14.824727 28.578909 7.68 52.596363-196.398545-30.72-8.238546-20.386909 76.078546c-7.493818-18.478545-19.223273-29.719273-35.397818-34.071273-19.968-5.352727-37.841455-2.327273-53.061818 9.216-14.429091 10.589091-24.087273 26.205091-29.579636 46.708364-5.725091 21.317818-5.026909 40.308364 2.164363 56.669091 7.68 17.687273 21.922909 29.323636 42.682182 34.862545z m11.240727-23.575273c-13.754182-3.700364-22.434909-11.217455-26.042181-22.597818-3.211636-9.541818-2.56-21.783273 1.512727-36.887272 4.049455-15.127273 9.774545-25.716364 17.547636-32.023273 8.913455-7.447273 20.130909-9.355636 34.164364-5.585455 9.704727 2.606545 16.989091 8.890182 21.294545 18.711273 4.701091 10.519273 5.282909 23.389091 1.326546 38.237091l-0.581818 2.141091c-3.630545 13.498182-9.634909 24.040727-17.594182 31.138909-9.006545 7.703273-19.758545 10.030545-31.627637 6.865454z" fill="#000000" fill-opacity=".246" p-id="143074"></path></svg>