<?xml version="1.0" standalone="no"?><!DOCTYPE svg PUBLIC "-//W3C//DTD SVG 1.1//EN" "http://www.w3.org/Graphics/SVG/1.1/DTD/svg11.dtd"><svg t="1747729688921" class="icon" viewBox="0 0 1024 1024" version="1.1" xmlns="http://www.w3.org/2000/svg" p-id="5832" xmlns:xlink="http://www.w3.org/1999/xlink" width="200" height="200"><path d="M135.168 180.736H71.68V54.272h126.976V117.76H135.168v62.976z m824.32-126.464v126.976H896V117.248h-63.488V54.272h126.976zM198.656 688.128H71.68v-126.976h63.488V624.64h63.488v63.488zM896 561.152h63.488v126.976h-126.976V624.64H896v-63.488zM508.928 889.856c36.352 43.52 89.6 66.048 142.336 66.048 31.744 0 63.488-8.192 92.16-24.576l38.4 44.544c6.656 8.192 15.872 11.776 25.088 11.776 7.168 0 15.36-2.56 20.992-8.192 13.824-11.776 15.872-32.256 4.096-46.592l-38.4-44.544c24.064-29.184 38.912-64.512 42.496-102.912 4.608-49.664-10.752-98.304-43.008-135.68-66.048-78.848-183.808-88.576-262.656-23.04-77.312 67.072-87.04 185.344-21.504 263.168z m16.896-130.56c2.56-33.792 18.432-64.512 45.056-86.016 24.064-19.968 52.224-29.696 81.408-29.696 36.352 0 72.192 15.36 96.768 45.056 45.056 53.76 37.888 133.12-15.872 178.176s-133.12 37.888-178.176-15.872c-22.016-24.576-32.256-57.856-29.184-91.648z" p-id="5833" fill="#409eff"></path><path d="M146.432 980.48h416.256C481.792 945.152 424.96 864.256 424.96 770.048c0-126.464 102.4-229.376 229.376-229.376 7.68 0 15.872 0.512 23.552 1.024 40.96-45.056 66.048-105.984 66.048-173.056 0-138.752-108.032-251.392-240.64-251.392s-240.64 112.64-240.64 251.392c0 110.08 67.584 203.264 162.304 238.08-159.232 39.424-278.528 196.608-278.528 373.76z" p-id="5834" fill="#409eff"></path></svg>