<?xml version="1.0" standalone="no"?><!DOCTYPE svg PUBLIC "-//W3C//DTD SVG 1.1//EN" "http://www.w3.org/Graphics/SVG/1.1/DTD/svg11.dtd"><svg t="1739248417703" class="icon" viewBox="0 0 1075 1024" version="1.1" xmlns="http://www.w3.org/2000/svg" p-id="23425" xmlns:xlink="http://www.w3.org/1999/xlink" width="209.9609375" height="200"><path d="M530.825051 363.778586a78.610101 78.610101 0 1 1-78.610102 78.610101 78.713535 78.713535 0 0 1 78.610102-78.610101zM312.578586 464.420202a58.440404 58.440404 0 1 1-58.440404 58.440404 58.440404 58.440404 0 0 1 58.440404-58.440404zM763.24202 464.420202a58.440404 58.440404 0 1 1-58.440404 58.440404 58.543838 58.543838 0 0 1 58.440404-58.440404zM243.691313 847.437576V657.73899a248.86303 248.86303 0 0 1 132.706263-12.412121v202.110707zM420.977778 847.437576V591.644444a299.959596 299.959596 0 0 1 115.639596-22.031515 297.580606 297.580606 0 0 1 118.225454 23.169293v254.655354zM832.232727 847.437576H699.112727V645.326869a250.51798 250.51798 0 0 1 133.12 12.412121z" p-id="23426" fill="#ef6755"></path><path d="M531.549091 176.562424L165.494949 351.469899l34.340203 71.783434 332.334545-158.771717 344.746667 158.771717L910.222222 350.952727 531.549091 176.562424z" p-id="23427" fill="#ef6755"></path></svg>