<?xml version="1.0" standalone="no"?><!DOCTYPE svg PUBLIC "-//W3C//DTD SVG 1.1//EN" "http://www.w3.org/Graphics/SVG/1.1/DTD/svg11.dtd"><svg t="1727604116727" class="icon" viewBox="0 0 1024 1024" version="1.1" xmlns="http://www.w3.org/2000/svg" p-id="13315" xmlns:xlink="http://www.w3.org/1999/xlink" width="200" height="200"><path d="M896 0H128C57.6 0 0 57.6 0 128v768a128 128 0 0 0 128 128h768a128 128 0 0 0 128-128V128c0-70.4-57.6-128-128-128z m-172.096 394.88c-24.384 0-46.72-8.96-63.36-24.32L395.52 522.88c0.64 1.28 0.64 3.2 0.64 5.12 0 5.12-0.64 9.6-1.28 14.08l141.44 88.32h0.704c22.4-23.616 54.976-38.4 90.88-38.4a128 128 0 1 1-128 128c0-12.096 1.856-23.68 5.12-34.56L364.096 598.4c-16.64 16-39.616 25.6-64 25.6-53.12 0-96-43.52-96-96 0-51.2 39.744-92.16 89.6-95.36l20.48-144a65.92 65.92 0 0 1-22.4-48.64c0-35.84 28.736-64 64-64 35.136 0 64 28.16 64 64 0 27.52-17.984 51.2-42.24 59.52v0.64L356.48 451.2c5.12 3.2 10.24 7.04 14.08 12.16l258.56-149.12c-0.64-5.12-1.28-10.24-1.28-15.36 0-53.12 42.88-96 96-96s96 42.88 96 96-42.816 96-95.936 96z" fill="#55ACFE" p-id="13316"></path></svg>