<?xml version="1.0" standalone="no"?><!DOCTYPE svg PUBLIC "-//W3C//DTD SVG 1.1//EN" "http://www.w3.org/Graphics/SVG/1.1/DTD/svg11.dtd"><svg t="1725367153521" class="icon" viewBox="0 0 1024 1024" version="1.1" xmlns="http://www.w3.org/2000/svg" p-id="36911" xmlns:xlink="http://www.w3.org/1999/xlink" width="64" height="64"><path d="M887.466667 0a136.533333 136.533333 0 0 1 136.533333 136.533333v887.466667L0 0h887.466667z m-136.669867 346.7264l-108.782933 193.262933 25.088 24.7808 147.285333-87.552 1.706667 1.6384-87.04 147.012267 25.088 24.7808 197.495466-105.710933-26.794666-26.4192-145.6128 89.1904-1.672534-1.672534 87.04-146.978133-25.088-24.7808-148.957866 85.879467-1.706667-1.6384 88.746667-145.339734-26.794667-26.453333z m-122.197333-120.558933l-152.2688 150.289066 113.800533 112.298667 20.0704-19.797333-90.385067-89.1904 48.5376-47.889067 80.349867 79.291733 20.0704-19.831466-80.315733-79.291734 43.52-42.939733 85.333333 84.241067 20.104533-19.797334-108.817066-107.383466z m-155.648-153.6L320.682667 222.890667l23.415466 21.504 113.800534-112.298667 1.706666 1.6384-36.864 189.917867 25.122134 23.108266 152.302933-150.289066-23.4496-23.108267-113.800533 112.298667-1.672534-1.6384 35.157334-188.279467-23.4496-23.1424z" fill="#FF0036" p-id="36912"></path></svg>