<svg id="Layer_1" data-name="Layer 1" xmlns="http://www.w3.org/2000/svg" xmlns:xlink="http://www.w3.org/1999/xlink"
     viewBox="0 0 406.06 405.94">
    <defs>
        <style>
            .cls-1{fill:none;}
            .cls-2{clip-path:url(#clip-path);}.cls-3{fill:url(#linear-gradient);}
            .cls-4{clip-path:url(#clip-path-2);}.cls-5{fill:url(#linear-gradient-2);}.cls-6{fill-rule:evenodd;}
        </style>
        <clipPath id="clip-path">
            <path class="cls-1"
                  d="M232.35,300.82l.12.89.48-.39-.09-.84Zm-4.75-.25v1l.54-.33v-.91Zm9.15-.12.17.81.41-.44-.13-.77Zm-14.22-.86v1.05l.6-.28v-1Zm18.22-.1.2.72.36-.48-.17-.69Zm-23.51-1.6-.1,1.15.67-.21.1-1.07Zm27.08.16.23.64.3-.51-.21-.61Zm-12.38-1.12.12,1,.68-.61-.09-1Zm4.12-.2.18.93.59-.66-.14-.88Zm-8.62-.14.07,1.14.77-.55v-1.07Zm-15.65-1.1-.19,1.25.74-.14.19-1.16Zm28,.56.21.82.51-.7-.17-.78Zm-17.07-.5v1.26l.86-.48v-1.18Zm20.44-.72.23.72.44-.73-.21-.69Zm-25.37-1-.08,1.36,1-.4.09-1.28Zm32.31.17.25.47.19-.54-.24-.44Zm-18.42-.69.13,1.08.92-.81-.11-1Zm14.43-.14.26.62.35-.74-.23-.59Zm-10.54.08.17,1,.81-.88-.15-.92Zm-29.56.31.82-.05.29-1.27-.82-.05Zm21.47-.75.1,1.21,1-.76-.06-1.14Zm11.65-.13.2.85.7-.92-.17-.81Zm-26.4-1.29-.16,1.5,1.06-.32.17-1.39Zm10.32.32v1.34l1.13-.69V291.1Zm29.24-.3.1.14h.1l.06.22.12-.52-.22-.37Zm-10,.23.22.74.59-.94-.2-.71Zm6.32-.49.25.52.27-.75-.23-.49ZM218.39,290v1.47l1.25-.6v-1.39Zm26.71.21.06.17.33.17.33-.67-.21-.6Zm-13.45-.3.16,1.07,1.14-1-.12-1Zm3.7.05.18.95,1-1-.14-.92Zm3.39-.43.2.82.89-1.09-.16-.79Zm-11.07-.2.14,1.2,1.27-.92-.1-1.16Zm-20.06-1.08-.24,1.64,1.16-.23.25-1.51Zm-7.13,1.36h.92l.39-1.4-.9-.16Zm50.27-.81.25.43.2-.75-.24-.4Zm3.29-.27.23.31.08-.51-.21-.29Zm-12.21.1.21.71.77-1.12-.18-.69Zm5.72-.26.24.53.39-1-.22-.5Zm-24-.21.11,1.34,1.4-.85-.07-1.28Zm-9.81-.57-.07,1.62,1.37-.51.09-1.52Zm30.82-.24.22.59.64-1.14-.19-.58Zm-24.76-1.21-.62.28.09,1.49.2-.1v.08l.37-1.89Zm15.72.76.19.88,1.23-1.17-.05-.28-.33-.38Zm-15.21-1,.31.38-.18,1,.35-.18,0-1.42Zm11.65.83.2,1,1.37-1.09-.15-1Zm20.5-.59.24.34.13-.72-.23-.33Zm-13.72.47.19.76,1.1-1.2-.15-.75Zm10.83-.35.23.43.29-1-.21-.41Zm-19.95-1.1.06.07v-.1Zm25.71.27.21.24v-.47l-.19-.22Zm-8.49.31.21.49.5-1.12.81.56-1.12-.78Zm-17.61-.33-1.12.72.2,1.14.78-.52v.41l.26-2.36Zm13.34-.66h0l-.87,1.09.18.64,1-1.25-.16-.63Zm-40.26,1.43,1.27-.11.34-1.66h-1.27Zm6.64-1.6-.12,1.78,1.49-.41.14-1.67Zm15.13.36.22,1.29,1.63-.95-.17-1.25Zm11.76-.75.21.79.08-.07v-1Zm-21.17-.08.09,1.65,1.64-.68v-1.57Zm29.6.6.18.53.83-1.27-.16-.53Zm-49.12.25,1,.16.51-1.54-1-.29Zm33.53-1.71.27,1,.54-.32-.59-.86Zm7.74.49.53.51.55-.44-.17-.79Zm14.76.09.22.34.2-.94-.21-.33Zm-18.79.13.23.92,1.59-1.1-.19-.92Zm6.62,0,.19.67,1.31-1.23-.15-.67Zm14.66-.66.22.26.06-.68-.21-.26Zm-4.89.47.2.39.41-1.16-.19-.38ZM221,282.59l-.41,1.55-.94-1.75.35.66h-.13l.25,1.45,1.75-.87-.19-1.4Zm8.76-.08-.22,1.33,1.11-.66-.23-1.05Zm12.49.28.07.06.06.52.8-.88-.13-.56Zm4.24.33.18.43.05-.12.31,1.23-.41-1.66.25.16.48-.91-.16-.43Zm9.66-1.12.18.18v-.42l-.17-.17Zm-21.41-.58.65.71Zm10.1.17-.46.58.15.46.63-.84-.63-.41Zm-5.24,0,.16.55,1-.72-.43-.34Zm-14.85.36.33,1.2,1.82-.95-.28-1.19Zm-37.4.38.76.37.63-1.3-.71-.49Zm58.07-1.45Zm-41.15,0-.17,1.95,1.6-.3.18-1.82Zm32.2.91.21.66,1.64-1.06-.17-.69Zm-26.3-.64.08,1.82,1.76-.59v-1.72Zm30.58-.39,0,.64.47-.36-.13-.57Zm9.59.64.17.39.28-1.14-.17-.29Zm2-.27.2.26.11-.92-.19-.24Zm-36.76-.27.28,1.62,1.86-.79-.22-1.56Zm32.76.51.16.34.4-1,.48,1.2-.5-1.24h0l.13-.32-.15-.33Zm-6-.32.13.45,1.36-1.21-.09-.41h0Zm-45,.75h1.38l.42-1.82-1.36-.15Zm49.17-.94.13.35.82-1.29-.27-.12Zm-17.18-.15.27.71.15.2,1.81-.89-.3-1Zm25.09-.54.2.2v-.64l-.19-.19Zm-33.8.06.21.7.39.58,1.73-.8-.34-1.34ZM239.14,279h0l-1.71.83.2.53,1.49-.71V279l.25.18-.08-.28Zm12.37,0-.41-.12ZM244.94,280l.09.35,1.21-1.27-.07-.36Zm-19.4-.66.45,1.09,2-.84-.39-1.1Zm31-.88.16.13v-.37l-.14-.11Zm-8.15.6.1.26.61-1.18h-.21Zm-14,.13-.46.19.29.66.5-.2-.06.65-1.65.91.28.8,1.41-.8-.12-.13.16-1.59.11.11,1.28-.52-.19-.72-.82.34-.17.76-.5-.49h0L233.22,278Zm15.45,0,.15.25.24-.8.46.77-.52-.88h.09l.14-.44-.13-.24Zm-19.6-.64.41.81,2-.7-.36-.83Zm21.22.34.19.05.15-.92-.16-.22Zm-4.42-.19.07.26.81-1-.12-.18Zm-8-.54h.09v.35l1.54-.45-.12-.4Zm-49,1.36,1.12.3.63-1.69-1.07-.45Zm50.11-1.89h.26l-.33-.11Zm7.77-.13-.4-.06,1.71.28H249l-1-.15v-.17Zm-4.52-.06v.06h.23l-1.49-.13Zm9.67.72.18.19v-.88l-.17-.17ZM211.22,278l.33,1.81,2-.71-.27-1.73Zm30.68-.65-1.16.12.43.15,1-.1v-.1H242v-.09Zm-36.23.29.09,2,1.86-.49-.05-1.89Zm38-.17h.18l1.36-.23,0-.06h0Zm-27.24.46.5,1.56,2-.82-.43-1.52Zm21.17-.9h.06l-.23.21L237,277h-.58l.25.3h.55l-.06.29-.07-.16-2.05.49.28.5,2-.46-.06-.13-.14-.08.12-.62.27.16h1.2l-.2-.32Zm.58-.1,1.76.28h.19l-2.1-.32Zm-16.5.6.18.3-.18.42.29.66,2-.78-.52-1.28Zm27.3-.68-.2.31v.17l.32-.49Zm1-.06-.16.39.09.17.23-.58Zm-23.66.5.56,1,.69-.2.51-1.27.72.89h.14l-.36-.69-.12.15-.32-.38Zm21.26-.56-.37.21-.08.1.62-.35Zm.39.31v.15l.49-.47-.08-.07Zm-48.14-.4-.21,2.13,1.7-.19.22-2Zm49,0h0Zm5.37-.15h.74v.46l.17.14v-.59h-.91Zm-26.25,0h0l-.2-.23Zm21.15-.35Zm-15.22.45h1.2l-.4-.48h-1.45Zm14.55.06h.2l.51-.5H249Zm-.67,0-1.41.37h0l1.59-.38.76-.43.1-.12Zm1.92-.72-.42.64h.16l.38-.58v-.08ZM233,276.7l-1.72.31.45.66,1.63-.29.1-.31.27.25h.08l-.06-.1h0l-1.91-1.46Zm16.07-.77.13-.05v-.1Zm1.92,1h.15l1.25.09-1.25-.09.22-1.05-.13-.1Zm-.88-.42.11.09.26-.66-.07-.17Zm2.17-.73v.52l.14.14.05-.69Zm-2.41-.42-.07.08v.07l.14-.17Zm-21.36.08.7.76-.07.09.89-.12-.61-.87Zm23.8,0-1.28.23,1.57-.28h-.14l-.13-.14Zm-1.83-.47-.17.32v.09l.23-.47Zm6,0,.07,0h-.06Zm-34.22.51.74,1.18,2.08-.56-.69-1.19ZM192.79,277l1.22.11.43-.85v.08l.3-1.16-1.45-.32Zm39-2-.31-.2-.18-.05Zm-14.42.37.73,1.48,2.06-.72-.67-1.48Zm13.55-.72h0Zm22.64.59.16.12v-.76l-.15-.11Zm-41.22-.08.61,1.77,2.06-.75-.54-1.72Zm-30,.86.86.53.79-1.43-.78-.67Zm68.6-1.82Zm0,0Zm-20.81.35.34.1-1.62-.08-.36.08.57.55,2.12.14-.65-.67.8.23-.69-.36H231l-1.53-.44Zm-23,.05.4,2,2-.63-.34-1.92Zm43.77-.41h0l-.32.64-.5.34.78-.92v-.06l-.84,1-.7.5,1.36-.95h-.05l.43-.84v-.1Zm1-.62-.1.8-.64.31.17-.61h-.05l-.24.86.06.08.08-.3h0l1.42-.68-.61.29.09-.85Zm-28.76.08.87,1.06,2.08-.22-.85-1.1Zm-21.59-.06.1,2.22,2-.39-.07-2.08Zm50.48-.33v-.08l-.09-.07v.24l-.51.46,0-.18-.06-.09-.1.37-.18.16,1.18-1Zm2.85.2.15.1L255,273l-.14-.08Zm-34.11-.22.37-.38ZM218.2,273l.93,1.41,1-.26-.1-.19.71-.73-.49-.77Zm8.94-.16-.46-.33-.17-.06Zm25.56.56.11.08v-1l-.11-.07Zm5.36-1.18Zm-6.62.88.44-1.15h0Zm.43-1.07-.09.47h0l.11-.61Zm-26.18.5.13.05-1.89-.17,1,.92,1.71.18-.46-.43.8-.11-.51.06-.38-.38.89.32-1.27-.8-1-.34Zm-12.31-.12.15.35v0l.7,1.35,2.06-.68-.84-1.71Zm-27.75,1.3,1.22.46.77-1.81-1.16-.63Zm67.92-2.36.07.59.13.07-.09-.76h0Zm-45.24.4.73,2,2.08-.7-.67-2Zm43.57.2.05-.13.13-.72h0Zm-28.66-1.11Zm29-.17v1h.06v-1.21Zm-49.15,0,.47,2.25,2.08-.56-.41-2.14Zm18.86-.43.8.33.41.21-1.38-.73Zm-1,.71Zm-.28-.07-1.79.21,1.12,1.34.92-.09-.75-1.15,1.19-.34-.91-1.06-1-.09Zm2.09-.4-1.16-.9h-.1Zm31.74-.6.12.05-.1-.45h-.11Zm-1.76.45h.06l-.1-1h-.07Zm-64,1.1,1.57.3.6-2.1-1.53-.49Zm70.61-2.52Zm-39.21-.14.57.43-.82-.32,1,.75.56.12-.71-.55h0l-.57-.44Zm33.32-.14Zm-54.15.36-1.59.1.08,1.67L197,271.9l-1.35-.09-.25,2.33h1.16l-.27-1.07,1.56-2.45.31.84,1.65-.22v-.16l-.12.12-.51-2.63.08.42m53.08-.29h0v-.06h0Zm4.87-.53Zm-3.87.07-.06-.3h-.09l.09.47-.21.57.51-1.38Zm-1.08-.69.07,1-.1,1.26.11-1.37h0l-.06-1Zm-74.1,1.51.94.71.63-1h0l-.2-1.13-.29-.3ZM204.5,268l.86,2.26,2.06-.67-.8-2.2Zm-2.07-.15-.13-.83Zm-.13-.83v0Zm-10.63,2.19,1.88.08.29-2.32-1.9-.36Zm10.59-2.41v0m0-.17Zm15.17,1.27-1.67-.69.65.65-.46.07.51,1-1.1-.05.66.77-1.11.3.26.58-.57.26.73,1.05,2-.51-1-1.54,1.69-.21-1.17-1.42,1.53.18-1.44-1.43,1.05.5-1.73-1.16Zm-15.17-1.3-.06-.32.06.32m50.13-.31h0l.17.89h.05l-.18-.93Zm-34.33,1.18.3.15-1.65-1.41Zm-18.57-1,.31,1.45-.58.6,1.94-1.93.58,2,.39-.09-.48-2.36Zm17.18-.26-.18-.15-.12-.05Zm-1.15-.42.32.15-.32-.31-.42-.19Zm-33.66,1.71,1.3.63.92-1.91-1.22-.82Zm25.59-2.74.06.25h-.86l-1.05.38,1.24,2.29,1.89-.72-1.2-2.27Zm-13.19-.47.11,2.64,2.07-.19-.09-2.46Zm-8.36-.46-.61,1.95,1.65.47.7-2.22-1.35-.57Zm15.06,0,1,2.54.27-.1-.24-1.48,1.41-.64-.34-.92Zm6-1.15.47,1.79.56.83,1.6-.68-.64-.94-1.85-.61-.16-.46Zm2.45.11.47-.21-.2-.26,1.52.93.9,1-1.45.38,1.3,1.57-1.76.57,1.23,1.76-2,.65,1.07,2,2-.68-.89-1.72,1.79-.55-1.12-1.62,1.55-.32-1.21-1.48h1.29l-1.42-1.51,1.05.54-1.6-1.5.78,1-1.08-.87.15.14h-.65l.3.7-2.33-1.41Zm2.2-.77-.31-.3-.11-.05Zm-22.84.2-.25,1.7,1.93.22.37-2.45-.76-.17Zm7.47-.39.57,2.72,2.09-.45-.52-2.59Zm-25.57.87.66.88,1.1-1.14-.57-1Zm31.48-1.4,1.38,2.61,1.16-.55-.19-1.18h.32l-.87-1.68Zm-27.28.61,1,.91,1.07-1.61-.88-1.07Zm19.07-2.4.09.46,2-.42-.06-.29Zm-2.3,1.1-.3.17V262l2.08-.08v-2.34l-.75.09v-.41l-1.18-.06Zm-12.89.33,1.35.82,1.09-1.95-1.26-1Zm19-1.55,1,2.8,1.92-.72-1-2.72Zm10.22.86.52.6v.1Zm-.59-1.56-.43-.39-.43.27,1.25,1.45-1.13.62h0l2,.74-.4-1.32,1.25.79.59.37-.59-.37h0l-2.26-2.59Zm-4.57.11,1.75,2.73,1.38-.92-1.78-2.77Zm-1.24-1.25.07-.09-.19-.1Zm-19.15,2.25,1.69.64.84-2.28-1.62-.85Zm17.24-3.28v1.85l.73,1.49,1.54-1-.84-1.71-1.32-.73Zm3.42-.12,2.09,2.89.78-.87-.54-.75v.55l-2.32-1.83Zm-17.24,2.07,1.95.37.48-2.54-1.92-.59Zm13.92-4,.07.12.06-.3Zm-4.65.33.45,1.36h.21v.78l.29.91.41-.18-.22-.06.35-2.89.55.17-.25-.78Zm-6.17,2.13H191v-2.74l-2.08-.22Zm-21-2.22.68,1.09,1.3-1.1-.56-1.21ZM200,254.1l1.93,1.15-1.22-2.09Zm-27.62.54,1,1.12,1.35-1.5-.88-1.28Zm4.16-.29,1.36,1,1.26-1.9-1.24-1.19Zm14.7-2.22.44,3.08,2-.4-.42-2.94Zm8.76-.31v.1l2.13,3.3.29-1.36-.7-1.09-1.26-1.4Zm-19.58,2,1.68.82,1-2.25-1.6-1Zm16-1.37,1.09,2.49.8.24.82-.74-1.39-3.17Zm-.75-1.08.09-.11-.17-.14ZM184,253l1.93.51.65-2.55-1.06-.41-.87-.16Zm15,.4.46-1.2-2.15-2.11Zm-9-2.84.71-.16L190,250Zm3.06-.4.88,3.22,1.66-.91-.45-1.69-1.29-1Zm-5.7-.57-.17,2.32,2,.1.17-2.28L187.9,249l-.42-.06Zm10.36-1,.44.46-.35-.71Zm-6.77-1.36.87.48v-.59Zm3.84.44,1.28,1,.34-.15-.75-2.06Zm-23.67,0,1,1.3,1.54-1.32-.84-1.45Zm4.27.35,1.31,1.21,1.46-1.74-1.21-1.42Zm-8.85-1,.67,1.28,1.48-.92-.53-1.39Zm12.8,1,.16.1,2.14-.26.56-1-1.52-1.2ZM161.62,246l.4,1.15,1.32-.56-.28-1.22Zm21.32,1.71.78.28.44-1.15,1.09.25.43-1.19-1.79-.86Zm-26.6-3,.12.94,1.09-.41v-1Z"/>
        </clipPath>
        <linearGradient id="linear-gradient" x1="-215.33" y1="-335.91" x2="-214.33" y2="-335.91"
                        gradientTransform="translate(11400.35 17763.99) scale(52.07)"
                        gradientUnits="userSpaceOnUse">
            <stop offset="0" stop-color="#b64d9c"/>
            <stop offset="0.37" stop-color="#b64d9c"/>
            <stop offset="0.81" stop-color="#7262a9"/>
            <stop offset="1" stop-color="#536caf"/>
        </linearGradient>
        <clipPath id="clip-path-2">
            <path class="cls-1"
                  d="M247.53,297.59l.48.22-.27-1.93-.45-.07Zm-8.37-1.79.57.44-.12-2.21-.54-.26Zm13.12-2.53.69.32-.48-2-.63-.16Zm-22.5-.65.64.72.12-2.45-.63-.51Zm15.62-.23.79.58-.33-2.26-.74-.4Zm-7.76-2,.89.91-.1-2.47-.85-.69Zm17.66-1.49.87.38-.64-1.9-.8-.22Zm-5.65-.19,1,.65-.51-2.07-.93-.47Zm-6.4-1.09,1.11,1-.31-2.22-1.05-.76Zm-23.83.26.68,1.07.48-2.66-.69-.83Zm9.62-.76,1,1.3.24-2.62-.93-1Zm23.28-2,1.18.62-.65-1.74-1.1-.47Zm-16.2.41,1.2,1.35v-2.3l-1.15-1.11Zm20.83-.77,1,.36-.75-1.61-1-.24Zm-9.9,0,1.31.92-.48-1.82-1.24-.76Zm-5.9-1.22,1.42,1.26-.23-1.85-1.4-1.15Zm8.28-1.57,1.48.77-.58-1.38-1.4-.63Zm4.33-.18,1.34.5-.72-1.34-1.25-.39Zm-25.44.5,1.22,1.77.39-2.29-1.21-1.51Zm16.23-.81,1.61,1-.38-1.37-1.54-.9Zm-24.88,1,.94,1.75.7-2.67-1-1.45Zm37.87-1.5,1.18.28-.81-1.28-1.1-.18Zm-22.9.4,1.48,1.63.12-1.8-1.44-1.42Zm4.49-1.17,1.7,1.35-.1-1.31-1.64-1.19Zm-30.93,1.22.66,1.5,1-2.78-.71-1.23Zm38.51-1.84,1.75.73-.44-.93-1.67-.63Zm4-.08,1.61.5-.6-1-1.53-.42Zm-8.55-.47,1.85,1-.22-.85-1.78-.87Zm12.1-.18,1.46.28-.71-1-1.38-.21Zm-10.06-.79,1.93.52-.27-.48-1.82-.52Zm3.77,0,1.8.33-.42-.55-1.74-.28Zm-5.95-.62,2,.17-.1-.09-2-.17Zm-2,.11,2,.71-.05-.37-2-.65Zm5.53-.13h1.9l-.24-.19h-1.85Zm-8.35.42,1.91,1.21.07-.72-1.86-1.11Zm-4,.3,1.73,1.67.27-1.16-1.69-1.5Zm18.12-.63,1.66.14-.54-.58-1.59-.11Zm6,.21,1.31.09-.79-.92h-1.22Zm-29.76.52,1.47,2,.55-1.65-1.45-1.79Zm20.87-1.66.3.25,1.77-.13-.35-.25Zm-12.93-.27,2.06.9.23-.21-2-.85Zm-42.07,1.94.4,1,1.15-2.38-.47-.82Zm26.48-.54,1.15,2.22.93-2.15-1.19-1.93Zm33.77-1.88.56.57h1.51l-.63-.6ZM249,276l.21.08,1.62-.58-.25-.07Zm2.15-.41.38.3,1.62-.28-.43-.3Zm-18.77-.2-.45.39,1.91,1.46.43-.51-1.8-1.3.23.12h.57l-2-1-.59-.06Zm23.74-1,.63.58,1.34-.2-.68-.61Zm-4.92.29.27.14,1.45-.7-.29-.12Zm-41.5,1.55.82,2.24,1.33-2.57-.91-1.92Zm43.73-2,.45.33,1.45-.42-.49-.33Zm-2.21-.19h.16l1.2-1.07h-.18Zm-31.06-.1,1.32,2.39,1.13-1.34-1.37-2.16ZM253,273l.31.17,1.29-.8-.35-.18Zm5.06-.46.68.57,1.18-.34-.73-.61ZM227,273l-.81.11,1.43,1.32-.73.73,1.66,2,.73-.9-1.58-1.72.29.26.88-.19-1.62-1.42.13.08,1,.35-1.92-1.18-1-.37Zm28.28-.45.51.36,1.28-.55-.54-.37Zm-2.66-.4.2.11,1-1.14-.22-.1Zm-56.3.94.51,2,1.68-2.76-.63-1.69ZM211,271.92l.9,2.67,1.6-1.83-1-2.37Zm43.42-.87.36.23,1.1-.91-.38-.22Zm-2.1.32.11.08.7-1.37-.12-.07Zm7.26-1,.72.55,1-.48-.76-.59Zm-2.82.05.54.38,1.11-.67-.57-.39Zm-35.35-.69-1.18-.26,1.16,1.36-1.19.34,1.45,2.23,1.3-.49-1.22-1.68,0,.06,1.42.25L221.85,270l1.43.76-1.73-1.28-1.38-.77Zm32.27.15.23.16.83-1.21-.24-.16Zm-41.4-1.29,1,2.71,1.81-.85L214,267.94Zm43.25.22.41.26.91-1-.42-.27Zm-2.47.13.16.15.51-1.4-.15-.14Zm4.84-.82.58.39.93-.78-.62-.4Zm-5.3-.12.1.14.22-1.44-.1-.13Zm-53.45.44.53,2.73,2.12-2.26-.71-2.4Zm55.27-.95.28.21.65-1.26-.29-.22Zm1.86-1.16.45.3.73-1.08-.46-.31Zm-76.84.93.27,1.51,1.87-2.47-.41-1.25Zm74-.92.2.21.34-1.41-.2-.21Zm-37.69-.48-1.56-.7.84,1.37-1.68-.18,1.06,2.41,2,.09-1-1.8,1.92.8-1.11-1.59,1.74,1.17-1.38-1.29-1.84-1.26Zm42.88-.31.62.39.76-.87-.65-.42Zm-6-.34.16.2,0-1.42-.15-.2Zm-50.73-.49.5,3,2.43-1.26-.73-2.79Zm53.35-1.13-.44,1.25.34.27.46-1.3-.27-.22ZM204.94,265l2.59-.12-.71-2.77h-2.34Zm-20.82-2.25.18,2.53,2.57-2.49-.4-2.21Zm24.62-1.39-2.12-.79.46,2.41,2.66.87-.59-1.92,2.33,1.41-.67-1.58,2,1.57-.87-1.16-2.28-1.86.57.88-1.84-1.16ZM188.63,259v3.18l3-1.65-.3-2.86Zm61.91-1.32.24.29-.37-1.2-.23-.28Zm6,0,.63.39.21-1.19-.65-.42Zm-3.77-.08.42.37-.2-1.41-.42-.38Zm-59.82-1.32-.2,3.29,3.32-.4-.17-3.09Zm58-.15.37.36-.35-1.3-.36-.37ZM254,256l.55.41v-1.31l-.57-.43Zm-54.32-.44-3-.9-.35,2.89,3.39.86v-2.1l3.2,1.79V256.2l2.54,2v-1.4l2,1.87-.19-.8-2.66-2.56-.12.55-1.85-1.5-.28,1.14-2.41-1.44Zm49.57-1,.31.33-.46-1.15-.31-.32Zm6.54,0,.71.41.07-1.2-.74-.43Zm-4,0,.51.41-.35-1.41-.51-.43Zm6.31-1.28.85.4.15-1.07-.9-.42Zm-92.68.82-.06,2,2.83-2.31-.19-1.74Zm84.29-1,.46.4-.46-1.26-.46-.41Zm-2-.37.24.27-.49-.91-.24-.28Zm5.4.23.66.44-.17-1.3-.68-.46Zm-5.35-1.52.4.36-.55-1.09-.4-.37Zm2.81,0,.62.45-.4-1.31-.62-.46Zm4.29-.09.81.43-.07-1.21-.83-.45Zm-8.82-.92.15.21-.41-.65-.16-.21Zm-74.07.37-.42,3,3.63-1.89.06-2.69Zm85.1-.91.95.38v-1.08l-1-.41Zm-8.88,0,.57.44-.56-1.22-.57-.44Zm-2.38-.45.31.3-.55-.86-.32-.31Zm6,.25.77.47-.3-1.28-.79-.49Zm-73.51-1.42-.86,3.44,4.09-.67.38-3.22Zm81.41.33,1,.3.09-1-1.08-.33Zm-13.83-.38.5.4-.64-1-.5-.4Zm3.11,0,.74.48-.51-1.27-.75-.49Zm-66,1.84,4.22.77.71-3.17-3.69-.85ZM253.53,248l.93.44-.19-1.21-1-.46Zm9.26-.4,1,.21.1-.82-1.05-.24Zm-74.85,1.32,4.13,2.11.75-2.15,3.39,2.64.92-1.67,2.47,2.42.9-.91,1.76,2,.69-.18L200,249.88l-1.06-.17.76.84-2.34-2.37-1.34.58-2.21-1.8-1.21,1.25-3.21-1.77Zm78.22-2.09.81.12.06-.69-.87-.13Zm3.62-.44h.56v-.52l-.6,0Zm-26.48-.52.27.35.4.35-.62-.83h0Zm3,.86.69.46-.66-1.17-.69-.48Zm9.33-.4,1.05.37-.09-1.09-1.1-.4Zm-55.79,3L201,250.6l-2.67-3.85-1.43-1.62Zm50.36-2.94.9.48-.42-1.26-.93-.5ZM243.7,245l.62.44-.72-1-.62-.42Zm14.5-.22,1.1.26v-1l-1.18-.28Zm-11.09.2.87.5-.62-1.24-.88-.52Zm4.73-.45,1,.44-.3-1.2-1.1-.47Zm-54.52,2.85,1.7.79-3-4-2.13-1.27Zm63.81-3.83,1,.15v-.84l-1.12-.17Zm-17,.08.83.49-.75-1.14-.84-.5Zm-3.08-.51.52.37-.7-.8-.52-.37Zm7.21.07,1.05.5-.53-1.26L247.7,242Zm16.18-.69h.86v-.7l-.92-.05Zm-10.58.28,1.17.35-.19-1.1-1.23-.39Zm14-1.6.07.52h.57v-.51Zm-26.66.84.76.47-.81-1-.75-.46Zm3.68-.1,1,.52-.72-1.22-1-.54Zm11.42-.86,1.2.22-.09-1-1.29-.25Zm-6.51.17,1.21.44-.41-1.21-1.26-.47Zm-106.59.09-.08,1.31,2.49-1.6-.12-1.13Zm98.46-.72,1,.52-.84-1.11-1-.52Zm-3.42-.47.66.41-.78-.77-.64-.41ZM246,240l1.22.5-.62-1.24-1.26-.54Zm13.14-.51,1.13.09v-.86l-1.24-.16Zm-20.68-.39.94.49-.9-.94-.92-.49Zm13.28.13,1.31.34-.28-1.13-1.39-.36Zm-9.33-.35,1.23.53-.81-1.2-1.24-.55Zm-90.71.07-.66,2.51,4-1.76.28-2.24Zm110.53-1.59.11.72h.92v-.72Zm-67.12,3.81.64,1.24-.46-.79-2.07-2.49,2.66,4.58,1.78,2.07-1.54-2.71-1.43-3.3-1.41-2.75Zm52.39-3.3,1.37.44-.49-1.22-1.45-.47Zm-8.54-.19,1.2.53-.93-1.09-1.2-.53Zm-78.61-.51-1.42,3.31,4.78-.84.84-3.07Zm74.84.1.84.45-.86-.75-.81-.44Zm-61.61,2,5,2.26,1.44-2.19,4.58,3.49,2-1.84,3.15,3.22,2.19-1,2,2.48h2.1l-3.26-4.08-2.6-.54.94,1.16-2.72-2.9-2.67.48-2.86-2.3-2.75,1.64.39-.6-4.27-2.13Zm-7,.45,5.07.68,1.43-3.31-4.41-.77Zm99.09-3.33.11.53.61-.1,0-.53Zm-11.53.85,1.34.19-.17-1-1.44-.21Zm-61.34,3.86,2.67,2-2.71-4.54L189.71,236Zm50.74-4.25,1.42.51-.72-1.26-1.46-.53Zm-8-.55,1.14.51-1-.92-1.12-.5Zm4.22-.39,1.43.54-.89-1.2-1.46-.55Zm9.64-.24,1.48.32-.37-1.17-1.58-.34Zm7.48-.31h1.24l-.1-.9h-1.35Zm-24.95-.8,1,.49-.94-.73-1-.47Zm4.1.3,1.42.53-1-1.07-1.41-.53ZM192.7,238l2.15,2.57-1.91-4.12-2.39-3Zm52.24-3.4,1.57.44-.59-1.27-1.66-.46Zm-56.2,4,3.35,1.47-3-4.88-3.86-2.13Zm43.53-5,1.38.53-1-.89-1.35-.51Zm27.46-.81.17.75,1-.1-.09-.75Zm-19,.93,1.64.51-.8-1.28-1.69-.53Zm10.86-.37,1.5.15-.27-1.07-1.6-.17Zm-14.86-.34,1.66.54-1-1.21-1.7-.54Zm-8.38-.93,1.3.5-1-.68-1.24-.49Zm34.65-.65.15.55.68-.18-.09-.55Zm-30.21.79,1.66.53-1.06-1-1.67-.53Zm-39.55,2.4.44,1.76-.4-1.37-1.6-3.11,1.25,4,1.48,2.84-.5-1.66-.45-3-.77-3Zm53.4-2.53,1.68.3-.47-1.23-1.79-.32Zm-17.86-.88,1.64.51-1.1-.85-1.6-.51Zm25.06-1,.3,1h1.39l-.18-.95Zm-11.9,1.16,1.8.42-.68-1.32-1.9-.45ZM189,234.71l3.16,2.68-2.1-4.58-3.43-3.22Zm48.56-3.8,1.88.49-.87-1.32-2-.52ZM224.5,230l1.57.49-1-.63-1.5-.48Zm8.89.47,1.92.52-1-1.23-2-.52Zm-4.14-.54,1.94.5-1.1-1-1.93-.5Zm19.35-.26,1.7.12-.35-1.15-1.83-.14ZM225,229.18l1.92.47-1.11-.81-1.87-.47Zm31.67-.84.24.8,1.16-.18-.14-.8Zm-66.57,4,2.46,3.1-1.26-4-2.63-3.5Zm30.43-4.21,1.87.45-1-.56-1.79-.45Zm23,.64,1.91.28-.55-1.31-2-.31ZM191.38,231l1.64,3.22-.55-3.54-1.71-3.46Zm2.15-1.1v2.7l.41-1.8.72-1.49.79-2.11-1.12,2.29-.25.66.06-.26.06-2.73Zm-1,.41.78,3.08.06-3.11-.79-3.19Zm46.16-2,2.06.4-.76-1.4-2.16-.43Zm-8.82-.3,2.19.48-1-1.26-2.23-.49Zm-4.31-.23,2.2.45-1.09-1-2.2-.45Zm8.64.36,2.14.47-.92-1.39-2.22-.49Zm-13.08-.82,2.2.4-1.07-.77-2.15-.39Zm38.66-.77.19.59.79-.25-.12-.6Zm-43.35,0,2.15.37-1-.48-2.07-.36Zm34.1-.53.39,1,1.6-.08-.26-1Zm-85.33,1.55,5.37,3.92,3-1.88,4.09,4.32,3.62-.92,2.41,3.26,3.7.36-3.45-4.8-4.33-1.06.9,1.22-3.07-3.4-3.94.3-4-3.08Zm19.07,3.66,4.24,2.77-2.43-5.16-4.67-3.48Zm12.44-4.39-.86,1,2.08-1.55.81-.92Zm20.51-1,2.45.28-1-.72-2.39-.29Zm-4.87-.35,2.41.22-.86-.39-2.31-.22Zm9.46.45,2.46.35-1-1-2.45-.36Zm-26,.7-.82,2.13,1.6-1.9.81-2.08Zm4.81-1.38-.09.17,2.66-.62v-.14Zm44.78.64,1.94.08-.44-1.25-2.1-.1Zm-37.13-1h2.6l-.66-.3h-2.49Zm18,.91,2.45.42-1-1.31-2.49-.43ZM204,224.66l.26.22,2.69-.27-.38-.21Zm-9.6,1.93-.1,2.77,1.12-2.3.12-2.78Zm18.79-1.68,2.65.11-.8-.69-2.58-.11Zm17.48.77,2.4.44-.94-1.48-2.5-.46Zm-31.53-.43-.54.84L201,225l.48-.79Zm41,.25,2.17.27-.64-1.43-2.33-.3Zm-4.87,0,2.32.39-.81-1.51-2.45-.43Zm-78.65,1.21,5.8,2.37,2.86-3-5-2.23Zm52.14-3,.48.68,2.76-.12-.55-.66Zm-16,2.7.77,3.29.62-2.75-.75-3.37Zm60.56-2.57.33.87,1.34-.27-.21-.87Zm-35.4.75,2.67.23-.9-1.06-2.65-.25Zm-15.86-.42-.19.74,2.64-.74.13-.7Zm-15.84,4.2,3.55,3.37-1.44-4.44-3.78-3.91Zm19-4.78.16.68,2.76-.4-.23-.66Zm-7.42.82-.85,2.08,2-1.43.83-2Zm-7.1,1.89,1.73,3.58v-3.23l-1.73-3.79Zm-2.26.52,2.68,3.63-.62-3.8-2.77-4Zm-41.09-.94,5.79.65,2-3.17-5.05-.74Zm75-1.88,2.67.34-.93-1.39-2.72-.36Zm-8.46-.5,2.81.06-.68-1.11-2.81-.08ZM128.58,223l-.6,1.79,3.68-1.23.27-1.62Zm10.78-.53-1.64,2.83,5.22-.66L144,222Zm60.91.47-.62,1.8,2.35-1,.61-1.77Zm-4.35.79-.17,2.81,1.59-1.85.2-2.8Zm51-1.76.51,1.14,1.84-.14-.35-1.14Zm-20,1.46,2.65.4-.91-1.61-2.76-.43Zm-17.24-1.61.39,1.22,2.86-.15-.41-1.19Zm-31.31,6.09,5.15,2.32-3-5.59-5.71-3.16ZM203.14,222l-.29,1.55,2.62-.69.28-1.52Zm3.15-.37.06,1.36,2.78-.4-.07-1.33Zm50,0,.26.66.95-.35-.17-.68Zm-24.72,1.15,2.59.38-.85-1.68-2.74-.41Zm-13.12-.18,2.85.24-.78-1.51-2.9-.26Zm23.3-.21,2.21.07-.53-1.39L241,221Zm-5.3,0,2.49.21-.72-1.59-2.63-.29Zm-42.81.54.7,3.44,1.15-2.32-.65-3.49Zm4.39-1.38-.25,2.79,2-1.38.29-2.77Zm16.46,0,2.93.11-.55-1.67-3-.14Zm8.46,0,2.85.35-.83-1.79-3-.39Zm-32.06.64,1.72,3.9.63-2.84-1.66-4.06ZM210.26,219l.31,1.94,2.93,0-.25-1.9Zm-9.61.84-.34,2.74,2.34-.9L203,219Zm48.8-.64.43,1,1.59-.35-.29-1Zm-42.61-.54V221l2.81-.24.09-2.2Zm-3.17.18-.38,2.64,2.62-.47.44-2.58Zm23.9,1.48,2.83.37-.83-1.89-3-.41ZM180.94,224l4.75,3.64-1.68-5-5.07-4.31Zm14.32-4,.58,3.52,1.6-1.93-.5-3.55Zm-7.52,1.76,2.79,4.13v-3.44L187.74,218Zm31.2-1.9,3,.3-.67-2-3.13-.34Zm24-2.07.65,1.3,2.13-.18-.45-1.3Zm-58.68,4.39,3.83,4.06-.72-4.16-4-4.55Zm48.21-2.8,2.74.27-.77-1.82-3-.31Zm5.31-.5,2.53.07-.64-1.59-2.74-.09Zm-23-.15,3,.24-.43-2.34-3.2-.29Zm-17.37-1.06.43,3.55,2-1.36-.32-3.54Zm54.74-1.08.35.76,1.18-.47-.24-.78Zm-28.72,1.62,3,.38-.76-2.18-3.24-.43Zm-31.58.19,1.61,4.14,1.2-2.37-1.5-4.26Zm-33.61-3,5.2,5.57,5.07-.79,3,4.34,5.41.8-3.56-5.47-6.13-1.64.64,1-3.45-3.89Zm52.53,2.68,3,.16-.12-2.74-3.15-.23ZM200.21,216l.25,3.52,2.4-.86-.13-3.48Zm3.21-1,.08,3.45,2.67-.39.05-3.39Zm3.46,3,2.88.06.22-3.25-3-.15Zm21.38-1.34,3,.31-.78-2.12-3.26-.36Zm16.86-2.06.57,1.13,1.9-.42-.39-1.15Zm-26,1.84,3.17.39-.61-2.55-3.39-.46Zm-31.3.61,2.76,4.57.69-3-2.69-4.81Zm45.65-1.48,2.85.1-.72-1.86-3.11-.14ZM255,214.11l.25.5.69-.45-.19-.51Zm-16.49-.42.82,1.51,2.48-.18-.58-1.51Zm-44.93,1.63,1.42,4.29,1.72-1.87-1.28-4.35Zm-19.36,4,6,3.91-2-5.69-6.43-4.77Zm9.16-2.93,4,4.72v-3.76l-4-5.13Zm31.49-1.23,3.21.42-.38-3.05-3.44-.52Zm9-.87,3.23.38-.75-2.51-3.51-.45ZM178.69,217l5.1,4.52-.85-4.67-5.27-5.14ZM196,213l1.19,4.35,2.16-1.34-1-4.36Zm-47.73-.13,6,4.23,4.6-2.14-5-3.79Zm99.23-1.23.48.9,1.49-.6-.33-.93Zm-36.92,2.9,3.15.47-.06-3.67-3.39-.6ZM199,211.38l.93,4.33,2.53-.82-.73-4.29Zm-10,1.75L191.6,218l1.3-2.49-2.46-5.06Zm40-.5,3.16.18-.81-2.22-3.46-.23Zm-26.51-2.18.66,4.25,2.82-.32-.44-4.17Zm4.22,3.85,3,.16-.16-4-3.25-.27Zm33.63-4.15.75,1.33,2.28-.46-.52-1.36Zm-6.61-.39,1,1.82,2.86-.15-.7-1.81Zm-14.42,2.66,3.38.49-.64-3-3.68-.59Zm30.81-3.74.36.62,1-.62-.26-.66Zm-59.21,1.21,2.36,5.1,1.86-1.94-2.18-5.19Zm-53.42.59,6.42,2.5,3.57-2.85-5.53-2.34Zm46.11.87,3.92,5.27.76-3.26-3.82-5.58Zm-17.22,3.45,7,3.18-2.59-6.17-7.5-4.15ZM224.2,210l3.43.31-.81-2.74-3.77-.4Zm-9.54,1,3.44.64-.43-3.73-3.75-.79Zm-21.06-3.51,2,5.18,2.36-1.35-1.77-5.2Zm35-1.54,1.16,2.26H233l-.82-2.23Zm13.77.71.66,1.09,1.89-.7-.46-1.14Zm-64.7,3.93,5.24,5.32v-4.18l-5.26-5.85Zm32.43-.5,3.39.75-.21-4.5-3.7-.94Zm-83.91-1.94,6.15.81,2.27-2.77-5.39-.85Zm45.4,3.25,6.47,5-1-5.3-6.67-5.75Zm63.48-5.64,1,1.64,2.72-.46-.67-1.66ZM197,205.8l1.67,5.16,2.75-.78-1.38-5.1Zm3.86-.86L202.1,210l3.06-.23-1-5Zm5.13,4.75,3.26.28-.58-4.74-3.58-.44Zm13.27-2,3.64.54-.75-3.41-4-.67Zm-34.39-.7,3.71,5.69L190,210l-3.5-5.9Zm-68.61-3.4-1.5,2.15,4.9-.34,1-2Zm128.34-.41.52.81,1.35-.81-.39-.87ZM224.46,205l3.61.16-.91-2.8-4-.23Zm-120.62-2.38-.36,1.06,2.58-.63.14-1Zm110.29,3.26,3.73.83-.6-4.28-4.14-1ZM187,203.49l3.38,5.94,2.09-2-3.08-6.05Zm42.31-2.15,1.2,2.08,3.21-.36L232.9,201Zm7.24.33.89,1.37,2.4-.76-.63-1.43Zm-58.72,3.12,5.19,6,.87-3.59-5-6.4Zm12.26-3.88,3,6.05,2.63-1.37-2.6-6.05Zm19,3.84,3.73,1-.54-5.14-4.15-1.21ZM246.94,200l.34.48.73-.69-.28-.54Zm-99.37,5,6.45-.61,3.56,5.75,7.07,1.22-3.52-5.93-7.81-2.16.41.66-4.12-4.75-7.47-.13Zm71.37-2.61,3.91.48-.94-3.58-4.37-.62Zm-25-3.11,2.48,6,3.06-.72-2.1-5.95Zm-23.58,4.68,6.64,5.94v-4.73l-6.68-6.56Zm34.23.28,3.61.45-1-5.45-4-.67Zm-4.29.15,3.39-.11-1.55-5.73h-3.81Zm-37.41.85,7.9,5.42-1.27-6.11-8.16-6.36Zm60.39-8.15,1.45,2.74,3.7-.13-1-2.69ZM179.34,200l4.92,6.5,1.68-2.87-4.64-6.77Zm59-2.22.76,1.06,1.86-1-.55-1.13Zm-8.06-1,1.16,1.85,3-.72-.83-1.84Zm-16.94,3.43,4.11.91-.89-4.6-4.62-1.12Zm-31.4-4,4.48,6.8,2.41-2.14-4.1-6.93Zm-52-1.24,6.33,4.45,5.42-2-5.35-4Zm40.64,2.51,6.55,6.75,1-4-6.36-7.24Zm48-.84,4.14.28-1.17-3.53-4.67-.4ZM240.24,194l.56.7,1.19-1-.44-.79Zm-32.55,4.69,4.17,1.24-.87-5.71-4.71-1.57Zm-22.18-5.25,3.93,6.91,3-1.37L189,192.07Zm-32.3,5.92,8.61,3.88-2.07-6.45-9.06-4.9Zm49.33-1.47,4.07.69-1.49-6.11-4.61-1Zm20.89-6,1.53,2.42,3.62-.52-1.09-2.42Zm-33.49-.1,3.33,6.86,3.49-.63-2.8-6.74Zm7.75,6.06,3.84.06-2.13-6.46-4.4-.27Zm33.72-5.54,1.07,1.42,2.52-1.06-.78-1.5Zm-70,4.39,8.1,6.56v-5.41l-8.1-7.33Zm80.85-6.2.31.35.51-.71-.26-.41Zm-30,3.41,4.5.83-1.26-4.64L210.41,189ZM172.38,192l6.2,7.33,2-3.15-5.87-7.62Zm-55.11-1.31,6.58,2.68,3.84-2.48L122,188.43Zm98.94-3.54,1.92,3.34,4.24-.1L221,187.16Zm16.58.83.87,1,1.84-1.24-.67-1.13Zm-90.16,5.15,8.39,1.55-3.25-6.12-9.08-2.52Zm81.21-6.27,1.48,2,3.29-1-1.08-2Zm-48.36,1,5.65,7.66,2.82-2.26-5.14-7.79Zm30.34,4.05,4.73,1.5-1.25-6.09-5.36-1.93Zm-101.43-5.43,5.83,1.09,2.12-2.2-5.17-1.07Zm57.4,2.78,8,7.49,1.21-4.51-7.72-8Zm38.15,1.47,4.65,1-1.92-6.68-5.33-1.37ZM179.79,185l5,7.77,3.51-1.37L184,183.7Zm5.22-1.59,4.2,7.67,4-.5-3.53-7.49Zm9.33,7,4.43.29L196,183.59l-5.12-.59Zm40-6.49.6.63,1.06-1.16-.49-.72Zm-23.4,3.25,4.81.55-1.61-4.41-5.48-.76Zm-60,1.81,9.51,6.86-.12-6.18-9.54-7.77Zm-59.19-6.41h3.87l.7-1.41-3.51-.09Zm123.88-1.06,2,2.83,4.13-.59L220.32,181Zm8.82.52,1.31,1.49,2.69-1.33-1-1.59Zm-93.57,4.23,7.37-.4-4.39-5.37-8.24-.34Zm33-3,7.53,8.14,2.37-3.48-7.07-8.47Zm39.77,1.31,5.25,1.34L207.1,180l-6-1.74Zm-36-5.89,6.86,8.49,3.36-2.39-6.22-8.6Zm41.89,1.55,4.94.06-1.86-3.92-5.64-.21Zm15.78-2.86,1,1,1.87-1.48-.8-1.13Zm-28.72,5.52,5.37,1.41-2.32-7.11-6.19-1.89ZM215.3,176l1.9,2.22,3.69-1.11-1.41-2.28Zm-64,4.45,9.39,8.15,1.47-5.09-9.08-8.8Zm-11.36,1.49,9.78,4.23-1.29-6.41-10.05-5.22Zm32.83-6.2,6,8.56,4.17-1.31-5.25-8.47Zm6.2-1.47,5.08,8.39,4.76-.29-4.24-8.14Zm11.1,8,5.16.62L192,175.21l-6-1Zm-78.13-8.09,6.12,4.57,5.66-1.63L118.51,173ZM226.4,173.1l.66.58,1-1.34-.55-.69Zm-25.17,3.76,5.66.93-2.29-5.41-6.51-1.26Zm4.24-6.9,2.64,3.32,4.78-.55-2-3.27Zm-51.53,3.63,8.86,8.86,2.86-3.83-8.28-9.22Zm61.33-2.9,1.63,1.59,3-1.53-1.25-1.7ZM128,174l9.09,1.73-2.61-6.15L124.94,167Zm64.76.38L199,176.2,196.27,169l-7.15-2.34ZM98,168.13l6.07,2.84,3.62-2-5.33-2.64Zm60.49.52,8,9.22,4-2.5-7.24-9.3Zm-18.63,3.11,10.41,7,1.09-5.74-10.16-7.81Zm45.24,1.49,6.07,1.05-3.74-8.05-7.07-1.55Zm-20.45-7.66,7,9.25,5-1.2-6.08-9Zm13.29,7.79h5.65l-4.9-8.64-6.65-.36ZM198.52,169l5.8.28-2.59-4.62-6.67-.52Zm17-3.17,1.22,1,2-1.69-1-1.16ZM204.21,164l2.45,2.5,4.25-1.16L209,162.84ZM84.38,162.42l4.81,1.32,1.68-1.63-4.33-1.26Zm131.61-1,.74.56,1-1.55-.64-.69Zm-100.79,4,7.5-.19-3.83-5.35-8.19-.51Zm73.68.24,6.63,1.13-3.3-6.2L184.54,159Zm-46.39-2.38,10.12,9.46,3.48-4.2-9.4-9.82Zm49.9-5.87,3.46,3.81,5.58-.46-2.65-3.69Zm11,1,2,1.71,3.38-1.62-1.6-1.82ZM71.51,157.28l2.43.31.41-.85-2.25-.24Zm56.54,6,10.23,4.31-.19-6-10.24-5Zm20-5.33,9.14,9.79,4.9-2.57-8.15-9.74Zm31.38,5.78,7.14,1.62-4.12-8.22-8.3-2.24Zm-23.93-8.85,7.94,9.76,6-1-6.82-9.49Zm15.44,8.56,6.72.41-5.44-8.94-7.9-.88ZM184.77,157l6.69.31-3.6-5.17-7.73-.61Zm18.17-3.51,1.47,1,2.24-1.86-1.19-1.19ZM96.28,151.9l5.25,4.57,5.31-1.25-4.56-4.12Zm93.85-.68,3.14,2.74,4.93-1.13-2.44-2.74Zm-59,3.36,10.52,6.56,2.49-5-10-7.12Zm-15.46-.38,9,1.73-1.58-5.84-9.27-2.5Zm87.25-5,.86.58.86-1.85-.75-.73Zm-29,5,7.36.64-4.7-6.75-8.64-1.11Zm-36.71-5.86,9.93,8.29,4.9-3.23-9-8.44ZM163.63,153l7.39.13-6-8.09-8.67-.56Zm39.23-7.58.44.33-.08-1.13-.44-.4Zm-26.6-.91,4.47,4.08,6.31-.53-3.51-3.93Zm12.22,1,2.46,1.76,3.91-1.66-2-1.86Zm-42.65-.68,8.72,9,6.59-1.3-7.49-8.76Zm-63.52-.17,5,2.92,3-1.48-4.44-2.69Zm37.22.6,9.78,3.79,1.19-5.39-9.5-4.44Zm42.67-6.12,5.94,5.44,7.14-.32-4.78-5.19Zm-59.34,5.37h6.92l-2.84-5.12-7.35-.62Zm84.59-3.9,1.68,1,2.36-2.13-1.39-1.18ZM69.2,138.25l3.43,1.36,1.17-1.13-3.13-1.28ZM172.9,138l3.88,2.76,5.51-1.24-3.08-2.74Zm-24.2-1.94,7.45,6.38,7.11-.94L157,135.35Zm-22.09,3,9.69,5.53,3.92-4.07-8.9-5.88Zm60.17-2.81,1.07.69.62-1.86-1-.82Zm-50.22-.3,8.82,6.46,6-2.36-7.73-6.48Zm49.38-3.11.62.4-.21-1-.61-.45Zm-29-1.05,5.4,3.75,6.49-1.14-4.39-3.66Zm13.4.56L173.2,134l4.14-2-2.29-1.71Zm-84.61-1.94,3.93,4.39,4.5-.84-3.5-4Zm22,5.08,8.08,1.61-.22-5.26-8-2.23Zm33.82-7.57,6.86,4.34,6.38-1.8L149,126.17Zm27.19-.57,1.88,1.07,1.9-2.16-1.58-1.19Zm-52.56,2.29,8.47,3.14,2.62-4.48-7.94-3.59Zm11.5-2.54,8,4.15,5-3.09-7.08-4.34Zm24.9-1.82,4.26,2.21,5.4-1.88-3.49-2.27ZM72.94,123l3.5,2.85,2.23-1.06-3.17-2.63Zm94.23.19,1.27.71.48-1.44-1.19-.78Zm-71,2.51L102,126l-1.47-4.63-6-.71Zm39.12-5.3,5.64,2.54,5.36-2.37-4.8-2.64Zm14.42-.83,2.84,1.36,3-2.43-2.43-1.5Zm-88.07-2.44,2.14,1.18.87-.73-2-1.11Zm44.71,3.19,6.6,1.41,1.24-4.35-6.33-1.82Zm13.26-1.76,6.52,2.28,3.82-3.38L124.08,115Zm27.33-4,2,.94,1.27-1.7-1.82-1Zm-64.36-1.71,2.12,3.66,3.76-.49-1.93-3.36ZM130.71,114l3.72,1.36,3.09-3-3.26-1.56Zm14-2.78,1.3.57.14-.8-1.24-.59Zm-47.72.5,4.59.37.11-3.67-4.51-.7Zm15.45-.88,4.74,1.17,2.24-3.18-4.37-1.41ZM72.3,106.59l1.87,2.25L76,108.2l-1.73-2.09ZM126.38,108l2.66.93,1.37-2.14-2.44-1Zm-3.51-4.19,1.71.55.28-1.08-1.63-.6Zm-59-1.44,1.28.84.77-.34-1.2-.78Zm25,2H91.6l-.75-2.59L88,101.55Zm17.84,0,3,.6.48-2.6-2.85-.78Zm-5.19-4.93,1.81.3L103,98.3l-1.79-.38ZM80.75,97.46l1,1.42,1.46-.09-1-1.33Z"/>
        </clipPath>
        <linearGradient id="linear-gradient-2" x1="-212.75"
                        y1="-337.55"
                        x2="-211.75"
                        y2="-337.55"
                        gradientTransform="translate(-90352.21 57108.05) rotate(90) scale(268.16)"
                        gradientUnits="userSpaceOnUse">
            <stop offset="0" stop-color="#D9D9EC"/>
            <stop offset="0.29" stop-color="#D9D9EC"/>
            <stop offset="0.32" stop-color="#D9D9EC"/>
            <stop offset="0.38" stop-color="#D9D9EC"/>
            <stop offset="0.45" stop-color="#D9D9EC"/>
            <stop offset="0.51" stop-color="#D9D9EC"/>
            <stop offset="0.67" stop-color="#D9D9EC"/>
            <stop offset="0.79" stop-color="#D9D9EC"/>
            <stop offset="0.92" stop-color="#D9D9EC"/>
            <stop offset="1" stop-color="#D9D9EC"/>
        </linearGradient>
    </defs>
    <g id="Layer_1-2" data-name="Layer 1-2">
        <g class="cls-2">
            <rect class="cls-3" x="154.88" y="214.2" width="105.98" height="117.5"
                  transform="translate(-134.87 288.46) rotate(-20)"/>
        </g>
        <g class="cls-4">
            <rect class="cls-5" x="21.63" y="53.72"
                  width="288.69" height="287.68"
                  transform="translate(-88.16 152.91) rotate(-30)"/>
        </g>
    </g>
</svg>