<?xml version="1.0" encoding="utf-8"?>

<!DOCTYPE svg PUBLIC "-//W3C//DTD SVG 1.1//EN" "http://www.w3.org/Graphics/SVG/1.1/DTD/svg11.dtd">
<svg version="1.1" id="Layer_1" xmlns="http://www.w3.org/2000/svg" xmlns:xlink="http://www.w3.org/1999/xlink" x="0px" y="0px"
	 viewBox="0 0 1309.814 1730.229" enable-background="new 0 0 1309.814 1730.229" xml:space="preserve">
<g>
	<g>
		<path fill="none" d="M223.55,1665l0.051,0.115l0,0c0.08-0.038,0.169-0.076,0.25-0.114H223.55z"/>
		<path fill="#D9D9EC" d="M225.61,1664.258c1.573-0.577,2.674-0.629,4.193-1.258c0.368-0.104,0.472-0.524,0.839-0.629
			c0.996-0.368,1.73-0.419,2.725-0.839c1.573-0.734,2.517-1.415,4.193-1.887c1.94-0.524,3.094-1.048,5.032-1.677
			c1.887-0.629,3.145-0.629,5.032-1.258c0.996-0.314,1.521-0.734,2.516-1.048c4.403-1.468,7.129-1.992,11.741-2.726
			c5.19-0.839,8.23-1.625,13.419-2.516c1.048-0.158,1.677-0.629,2.726-0.839c3.04-0.629,4.822-1.048,7.967-1.048l11.532,1.887
			c2.988-1.468,4.665-2.569,7.758-3.564c1.887-0.629,3.303-0.315,5.032-1.258c0.734-0.419,0.838-1.258,1.048-2.097
			c0.158-0.786,0.839-1.048,1.258-1.677c0.419-0.577,0.734-0.996,1.258-1.468c2.201-2.045,4.717-2.464,5.452-5.452
			c1.415-0.314,2.201-0.996,3.145-2.096c0.524-0.629,0.682-1.468,1.468-1.678c0.577-0.158,1.101-0.104,1.678-0.209
			c1.363-0.314,2.201-0.368,3.565-0.629c0.996-0.158,1.467-0.734,2.516-0.838c3.355-0.419,5.242-0.525,8.387-1.678
			c1.572-0.577,2.516-1.258,4.193-1.258c1.782,0,2.831,0.419,4.613,0.419c1.206,0,1.835-0.419,2.935-0.838
			c1.94-0.787,3.145-1.153,5.032-2.097c0.943-0.472,1.52-1.048,2.516-1.468c1.363-0.577,3.355-0.577,3.355-2.096
			c0-1.206-0.734-1.73-0.839-2.936c0-0.367,0.158-0.524,0.158-0.891c0-0.943-0.053-1.519,0.052-2.463
			c2.411,0,3.827-0.419,6.081-1.258c0.996-0.368,1.52-0.891,2.516-1.258c0.891-0.314,1.573-0.314,2.516-0.629
			c0.996-0.314,1.678-0.839,2.726-1.049c1.258-0.262,2.097-0.209,3.355-0.419c3.932-0.682,6.238-1.416,10.274-1.678
			c1.887-0.105,2.935-0.419,4.822-0.629c5.242-0.577,8.229-0.734,13.419-1.468c1.416-0.158,2.306-0.263,3.774-0.42
			c2.778-0.262,4.351-1.048,7.129-1.048c4.142,0,6.343,1.677,10.483,1.677c3.145,0,4.875-0.838,8.02-0.838
			c2.953,0,5.293,0.035,7.596,0.077v-455.07L57.455,1288.531L223.55,1665h0.301C224.383,1664.75,224.942,1664.504,225.61,1664.258z"
			/>
		<path fill="#D9D9EC" d="M1065.754,1091.023c0.419,1.73,1.258,2.464,1.677,4.193c0.315,1.257,0.262,2.149,0.629,3.355
			c0.261,0.786,0.419,1.677,1.258,1.677c1.206,0,1.783-0.943,2.517-1.887c1.205-1.52,2.096-2.411,3.774-3.355
			c0.995-0.576,1.519-1.31,2.516-1.887c1.258-0.786,2.253-1.1,3.355-2.096c1.519-1.363,0.943-3.46,2.516-4.822
			c0.471-0.419,1.101-0.367,1.678-0.63c0.943-0.471,1.468-1.048,2.307-1.677c0.209-0.157,0.629-0.052,0.838-0.21
			c0.262-0.157,0.157-0.681,0.419-0.838c0.524-0.367,1.468-0.367,1.468-1.049c0-0.681-0.629-0.995-0.629-1.677
			c0-1.153,1.048-1.573,1.887-2.307c1.101-0.996,1.887-1.887,2.097-3.355c0.314-1.887-0.42-3.092-0.21-5.032
			c0.314-2.516,2.044-3.46,2.726-5.871c0.524-1.887,0.104-3.302,1.048-5.031c0.367-0.735,1.048-0.996,1.468-1.678
			c0.839-1.258,1.31-2.253,2.726-2.935c0.943-0.472,1.625-0.629,2.516-1.049c1.31-0.629,2.097-1.205,3.355-1.886
			c2.097-1.153,2.831-2.673,5.032-3.565c1.887-0.786,3.983-1.519,3.983-3.565c0-0.733-0.524-1.048-0.839-1.677
			c-0.629-1.258-1.257-1.992-1.257-3.406v-4.927c0-1.048-0.157-1.835-0.839-2.569c-0.996-1.101-2.412-0.996-3.355-2.097
			c-0.839-0.943-0.629-2.043-0.629-3.355c0-3.616,1.048-5.608,1.048-9.225c0-1.363-0.105-2.412-1.048-3.355
			c-0.21-0.209-1.415,0.053-1.678,0v0c-1.311,0.209-2.045,0.209-3.355,0.209c0,2.726-0.419,4.352-1.258,6.919
			c-0.734,2.306-1.101,3.879-2.516,5.87c-1.94,2.674-3.722,3.67-5.661,6.29c-0.891,1.206-1.363,2.045-2.096,3.355
			c-1.73,2.988-2.621,4.98-3.145,8.386c-0.42,2.989-0.105,4.875-1.048,7.758c-0.314,0.996-0.734,1.573-1.258,2.516
			c-0.734,1.311-1.048,2.464-2.306,3.355c-0.209,0.105-0.577,0.105-0.839,0.21c-0.524-0.944-0.681-1.625-1.258-2.516
			c-0.368-0.629-0.682-1.468-1.468-1.468c-1.153,0-1.625,1.048-2.307,1.887c-0.996,1.153-1.52,2.045-2.307,3.354
			c-1.573,2.517-3.145,3.565-5.242,5.661c-1.677,1.678-2.464,2.884-3.774,4.822c-1.363,2.045-2.307,3.408-2.307,5.871
			c0,1.311-0.105,1.991-0.105,3.302c0,0.367,0.315,0.525,0.315,0.891c0.052,3.145-0.315,4.98-0.315,8.124
			C1065.858,1089.188,1065.491,1089.922,1065.754,1091.023z"/>
		<path fill="#D9D9EC" d="M942.887,1128.763c0.472-1.206,0.209-2.045,0.419-3.355c0.367,0.052,0.419,0.63,0.839,0.63
			c0.472,0,0.681-0.42,1.048-0.63c-0.367-2.359,0-3.669,0-6.028c0-2.306-0.419-3.669,0-5.923c0.524-2.569,1.258-4.141,1.887-6.709
			c0.052-0.314,0.419-0.472,0.419-0.839c0-1.416-1.625-1.468-2.726-2.306c-1.205-0.944-1.678-2.045-1.678-3.565
			c0-1.887,1.049-2.884,1.678-4.613c0.472-1.258,0.157-2.307,1.048-3.355c0.682-0.839,1.782-0.524,2.516-1.258
			c0.419-0.419,0.314-1.101,0.419-1.677c0.314-1.416,0.682-2.359,1.678-3.355c1.782-1.782,3.407-2.15,5.87-2.935
			c2.778-2.045,4.088-5.661,7.601-5.661c0.629,0,0.995,0.157,1.625,0.209c0.472-2.045,0.262-3.407,1.257-5.242
			c0.315-0.577,1.048-0.786,1.048-1.468c0-1.416-1.363-1.94-2.516-2.726c-1.573-1.048-2.935-2.045-2.935-3.983
			c0-2.096,1.521-3.303,3.355-4.193c1.625-0.786,2.516-1.363,4.194-2.096c2.254-0.996,3.512-1.94,5.87-2.726
			c1.626-0.525,2.726-0.682,4.194-1.468c3.25-1.783,2.83-5.19,3.565-8.807c0.367-1.94,0.419-3.145,1.048-5.032
			c0.314-0.996,0.629-1.572,1.048-2.516c0.368-0.891,0.734-1.887,1.73-1.887h4.927c0.996,0,1.573,0.419,2.568,0.419
			c1.468,0,3.355-0.209,3.355-1.677c0-0.892-0.419-1.468-1.048-2.097c-0.261-0.263-0.629-0.104-0.838-0.419
			c-0.157-0.263,0.104-0.578,0-0.839c0.943-0.368,1.52-0.525,2.516-0.839c0.682-0.21,0.996-0.63,1.73-0.63h4.089
			c1.31,0,2.149-0.157,3.406,0.21c0.682,0.157,1.678,0.314,1.678,1.048c0,2.673-1.049,4.194-1.887,6.709
			c-0.944,2.831-1.363,4.56-2.307,7.339c-0.891,2.621-1.677,4.035-2.306,6.709c-0.419,1.729-0.943,2.726-1.887,4.193
			c-0.838,1.31-1.887,2.148-1.887,3.774c0,1.205,1.258,1.519,2.307,2.096c0.368,0.157,0.472,0.629,0.839,0.839
			c1.468,0.996,2.464,1.468,4.193,1.887c1.73,0.419,3.198,0.734,3.983,2.306c0.734,1.52,0.996,3.564,2.726,3.564
			c1.468,0,2.045-1.153,3.355-1.677c1.206-0.473,2.15-0.473,3.355-0.839c1.416-0.472,2.255-1.258,3.774-1.258
			c1.677,0,2.307,1.363,3.774,2.097c0.891,0.42,1.625,0.314,2.516,0.629c0.682,0.21,1.048,0.786,1.678,1.048
			c0.891,0.367,1.52,0.314,2.516,0.42c0.996,0.105,1.521,0.419,2.516,0.419c4.193,0,5.871-3.355,8.597-6.5
			c0.734-0.891,0.943-1.834,1.886-2.516c0.892-0.629,1.887-0.734,2.517-1.677c1.153-1.782,1.363-3.04,2.096-5.032
			c0.472-1.311,0.891-2.045,1.258-3.354c1.101-3.774,0.734-6.343,2.096-10.064c0.996-2.674,1.887-4.142,3.145-6.709
			c1.206-2.465,1.363-4.142,2.307-6.71c0.891-2.411,1.834-3.617,2.935-5.87c0.943-1.887,0.524-3.617,2.096-5.032
			c0.891-0.786,1.678-0.891,2.726-1.468c1.625-0.943,2.516-1.677,4.193-2.516c1.625-0.787,2.935-1.048,4.194-2.307
			c0.472-0.472,0.629-1.153,1.048-1.677c1.416-1.73,3.093-1.783,4.822-3.145c1.73-1.363,1.887-3.198,1.887-5.452
			c0-1.206-0.419-1.834-0.839-2.935c-0.261,0.052-0.576-0.053-0.838,0c-1.678,0.629-2.358,2.044-4.194,2.307
			c0.472-0.996,0.577-1.73,1.258-2.516c0.473-0.525,1.102-0.629,1.678-1.048c0.943-0.682,1.311-1.521,1.887-2.517
			c1.625-2.621,1.258-4.665,2.307-7.547c0.996-2.674,1.206-4.613,3.145-6.71c1.573-1.73,2.726-2.726,4.404-4.403
			c0.734-0.734,1.677-1.206,1.677-2.306c0-1.416-0.209-2.254-0.629-3.564c-0.157-0.63-0.629-0.996-0.629-1.678
			c0-1.416,0.838-2.15,1.468-3.355c1.206-2.307,2.202-3.617,3.564-5.87c0.525-0.892,1.153-1.468,1.468-2.517
			c1.573-2.673,3.04-3.878,5.242-6.081c1.153-1.153,1.626-2.096,2.726-3.355c0.839-0.996,1.521-1.468,2.516-2.306
			c1.992-1.73,2.412-3.303,4.403-5.032c1.206-1.048,2.097-1.521,3.355-2.516c1.52-1.206,1.73-2.569,2.726-4.194
			c0.838-1.363,1.782-1.887,2.935-2.935c0.786-0.734,1.048-1.416,1.886-2.097c0.525-0.419,1.102-0.682,1.678-1.048
			c1.416-0.943,1.94-1.94,3.145-3.145c2.096-2.096,3.564-3.145,5.661-5.242c2.935-2.935,5.032-4.193,8.177-6.919
			c1.206-1.048,1.835-1.783,3.145-2.726c1.729-1.258,3.145-1.363,5.032-2.307c1.678-0.839,2.569-1.573,4.193-2.516
			c3.669-2.097,6.448-2.307,10.273-4.194c1.992-0.996,3.041-1.94,5.032-2.935c1.626-0.787,2.674-1.311,3.984-2.517
			c0.209-0.158,0.629,0,0.838-0.209c0.315-0.314,0.21-0.786,0.21-1.258c0-1.153-0.629-1.783-0.629-2.936
			c0-1.834,1.415-2.568,2.516-3.983c0.891-1.153,1.206-2.097,1.887-3.355c0.682-1.258,1.311-2.045,1.887-3.355
			c0.262-0.577,0.157-1.258,0.629-1.678c0.472-0.419,1.258-0.104,1.678-0.629c0.367-0.472,0.314-1.101,0.419-1.678
			c0.629-2.673,1.206-4.298,2.516-6.709c0.996-1.835,2.359-2.359,3.355-4.194c0.472-0.891,0.629-1.625,1.048-2.516
			c0.63-1.311,1.363-2.045,1.887-3.355l-0.419-1.678c0.787-3.198,3.565-4.141,4.193-7.338c0.577-2.83,0.263-4.718,0.839-7.548
			c0.682-3.355,3.827-3.879,5.451-6.919c1.206-2.306,2.097-3.878,4.194-5.451c0.944-0.682,1.939-0.839,2.516-1.887
			c0.943-1.73,0.209-3.145,0.838-5.032c0.314-0.996,0.944-1.572,1.468-2.516c1.363-2.359,2.935-3.198,5.032-5.032
			c0.682-0.577,0.944-1.153,1.677-1.677c0.577-0.419,1.153-0.577,1.678-1.048c1.468-1.363,1.311-3.04,1.677-5.032
			c0.053-0.314,0.368-0.524,0.419-0.839c0.368-2.254,0.263-3.827,1.258-5.87c0.524-1.048,1.153-1.678,1.153-2.883
			c0-1.835-0.105-2.83-0.105-4.665l-0.209,0.629c0.891-5.346,3.983-7.496,7.129-11.741c1.572-2.15,2.307-3.617,3.774-5.871
			c1.468-2.254,3.407-2.778,4.403-5.242c0.682-1.677,0.787-3.198,2.306-4.193c1.311-0.838,2.464-1.101,3.145-2.516
			c0.735-1.468,0.682-2.569,1.049-4.193c0.209-0.996,0.681-1.52,0.839-2.516c0.629-4.037,0.838-6.343,0.838-10.432v-5.556
			c0-1.624-0.629-2.516-0.629-4.14c0-2.36,0.472-3.879,1.677-5.871c0.473-0.786,1.258-1.153,1.258-2.096
			c0-2.306-1.468-3.355-2.307-5.452c-0.524-1.258-0.734-2.096-1.258-3.355c-1.363-3.303-1.729-5.294-2.516-8.911
			c-2.096-0.368-3.302,0.105-5.399,0.105c-2.149,0-3.407-0.524-5.504-0.839c-2.253-0.368-3.721-0.368-5.87-1.048
			c-2.307-0.734-3.616-1.626-6.08-1.888c-0.996-0.104-1.519,0.105-2.516,0c-0.996-0.104-1.573-0.472-2.516-0.629
			c-3.565-0.577-5.714-0.838-9.226-1.677c-1.257-0.314-2.096-0.577-3.355-0.839c-4.403-0.891-7.18-2.778-9.645-6.5
			c-0.157-0.263-0.052-0.577-0.21-0.839c-0.681-1.048-1.573-1.311-2.516-2.096c-1.625-1.416-2.358-2.464-4.194-3.564
			c-1.729-1.049-2.568-1.94-3.983-3.355c-0.576-0.577-1.258-0.787-1.677-1.468c-0.734-1.206-0.366-2.359-1.258-3.355
			c-0.681-0.734-1.677-0.524-2.516-1.048c-0.995-0.629-1.205-1.521-1.887-2.516c-0.943-1.416-1.468-2.464-1.468-4.194
			c-1.573,0-2.463-0.263-3.983-0.629c-1.363-0.315-2.411-0.419-3.355-1.468c-0.681-0.787-0.734-1.573-1.258-2.516
			c-1.153-1.991-1.939-3.198-2.935-5.242c-1.153-2.359-2.411-3.512-3.565-5.87c-0.734-1.468-0.839-2.621-1.257-4.193
			c-0.419-1.573-0.786-2.569-1.048-4.193c-0.63-3.879-1.992-5.976-4.194-9.225c-0.629-0.944-1.101-1.573-1.677-2.517
			c-0.157-0.263-0.052-0.629-0.209-0.838c-0.471-0.524-1.048-0.473-1.678-0.839c-0.943-0.524-1.519-1.048-2.516-1.468
			c-1.31-0.577-2.097-0.996-3.355-1.678c-1.205-0.629-2.097-0.838-3.355-1.468c-2.254-1.101-3.25-2.411-5.032-4.193
			c-1.729-1.73-2.726-2.988-3.565-5.242c-0.943-2.568-0.995-5.189-3.564-6.29c-1.31-0.524-2.463-0.419-3.355-1.468
			c-0.629-0.734-0.262-1.573-0.419-2.516c-0.366-2.411-2.516-3.355-2.516-5.819v-5.137c0-1.746-0.525-3.135-1.419-4.318H562.179
			c-1.25,1.887-1.88,2.999-2.986,5.21c-0.734,1.258-1.258,2.83-2.096,3.983c-2.149,2.935-4.246,4.036-5.871,7.339
			c-0.576,1.205-0.524,2.096-1.048,3.355c-0.262,0.629-0.734,0.995-0.839,1.677c-0.261,1.258,0.21,2.097,0,3.355
			c-0.157,0.996-0.524,1.573-0.838,2.516c-0.472,1.258-0.576,2.096-1.049,3.355c-0.471,1.309-1.258,1.939-1.258,3.355
			c0,3.092,1.048,4.822,1.048,7.914c0,3.198-0.524,5.032-0.419,8.23c0,0.734,0.209,1.205,0.209,1.939
			c0,1.782-0.419,2.778-0.209,4.56c0.263,2.306,1.048,3.512,1.048,5.818v4.718c0,3.983-0.419,6.29-1.048,10.221
			c-0.366,2.306-1.887,3.46-1.887,5.818c0,0.682,0.209,0.419,0.209,1.101v-0.001l70.03,117.206l-102.318,325.825l-16.342,5.839
			h444.947C941.945,1130.782,942.448,1129.854,942.887,1128.763z"/>
		<path fill="#D9D9EC" d="M1119.01,595.576c-1.729-1.049-2.726-1.678-4.194-3.145c-0.995-0.996-1.205-1.992-1.468-3.355
			c-0.157-0.944-0.629-1.468-0.629-2.464v-4.299c0-0.943-1.048-1.31-1.887-1.624c-1.31-0.472-2.306-0.314-3.354-1.258
			c-1.939-1.729-1.834-3.773-3.355-5.87c-0.629-0.891-1.573-1.101-2.517-1.677c-3.406-2.097-6.709-2.883-7.967-6.709
			c-0.419-1.311-0.996-1.992-1.258-3.355c-0.734-3.722-0.681-5.975-2.096-9.435c-0.786-1.94-1.206-3.25-2.307-5.032
			c-0.734-1.206-1.992-1.153-3.355-1.468c-1.363-0.314-1.991-1.048-3.406-1.048h-5.766c-0.839,0-1.101-0.787-1.73-1.258
			c-1.258-0.943-1.94-1.678-3.145-2.726c-0.262-0.209-0.314-0.681-0.629-0.838c-0.839-0.473-1.52-0.105-2.517-0.21
			c-1.468-0.158-1.991-1.52-2.306-2.935c-0.525-2.255-0.472-3.564-0.63-5.871c-3.406,0-4.979-2.516-8.386-2.516
			c-1.783,0-2.831,0.629-4.613,0.629c-0.681,0-1.205-0.158-1.678-0.629c-0.471-0.472-0.314-1.677-1.048-1.677
			c-0.839,0-1.468-0.053-2.097,0.419c-0.89,0.681-0.89,1.729-1.677,2.516c-0.786,0.786-1.519,1.1-2.516,1.468
			c-1.887,0.786-3.04,1.153-5.032,1.468c-1.153,0.157-1.782,0.629-2.987,0.629h-5.137c-1.311,0-2.096-0.368-3.407-0.419
			c-3.145-0.21-4.927-0.263-7.968-1.049c-2.149-0.577-3.25-1.625-5.032-2.935c-0.629-0.472-1.205-0.629-1.677-1.258
			c-0.681-0.891-0.839-1.835-1.678-2.516c-0.786-0.629-1.572-0.419-2.516-0.839c-1.939-0.891-1.31-3.827-3.354-4.403
			c-0.576-0.158-1.101-0.052-1.678-0.209c-1.677-0.473-2.516-1.258-4.193-1.887c-3.407-1.258-5.556-1.468-9.226-1.887
			c-0.996-0.105-1.573-0.419-2.568-0.419c-6.238,0-9.803-0.21-16.04-0.21c-2.621,0-4.141,0.21-6.762,0.419
			c-1.153,0.053-1.834,0.419-2.988,0.419c-2.15,0-3.407-0.209-5.556-0.209c-1.048,0-1.573-0.524-2.569-0.839
			c-1.677-0.524-2.725-0.891-4.193-1.887c-0.734-0.472-0.944-1.206-1.678-1.678c-1.573-1.048-2.726-1.468-4.193-2.725
			c-1.31-1.101-1.887-2.411-1.887-4.193c0-0.629,0.263-1.101,0.419-1.678c-2.149,0.681-3.145,1.52-5.242,2.306
			c-1.31,0.471-2.201,0.419-3.564,0.629c-2.097,0.314-3.302,0.629-5.452,0.629c-1.52,0-2.358-0.577-3.774-1.048
			c-0.943-0.315-1.624-0.315-2.516-0.629c-3.879-1.416-6.028-2.359-10.064-3.355c-1.729-0.419-2.568-1.153-4.194-1.887
			c-0.525-0.209-1.153-0.209-1.678-0.419c-0.996-0.419-1.519-1.048-2.516-1.468c-3.197-1.416-5.189-1.94-8.596-2.725
			c-2.358-0.787-3.565-1.888-5.871-2.726c-3.774-1.416-6.132-1.835-10.064-2.517c-2.201-0.367-3.406-0.996-5.661-1.258
			c-0.996-0.105-1.573-0.419-2.516-0.629c-4.245-1.049-6.552-1.992-10.483-3.774c-3.197-1.416-5.242-1.992-8.387-3.565
			c-1.415-0.682-2.044-1.573-3.355-2.306c-1.258-0.734-2.202-1.048-3.355-1.887c-0.63-0.472-0.943-1.101-1.677-1.468
			c-2.411-1.311-3.932-2.045-5.871-3.983c-2.412-2.411-3.669-3.932-6.5-5.871c-2.568-1.73-4.088-2.883-6.709-4.612
			c-1.677-1.101-1.992-2.726-3.564-3.984c-0.576-0.419-1.101-0.682-1.678-1.048c-2.516-1.73-3.355-3.46-5.661-5.451
			c-0.838-0.734-1.625-1.049-2.516-1.678c-1.205-0.839-1.363-2.045-2.096-3.355c-0.367-0.734-1.049-0.996-1.468-1.677
			c-1.205-1.783-1.782-2.936-2.096-5.032c-0.419-2.621-2.253-3.669-3.984-5.661c-1.624-1.887-2.516-3.04-3.984-5.032
			c-0.734-0.996-1.468-1.468-2.096-2.516c-1.31-2.15-1.625-3.722-2.935-5.87c-0.891-1.468-1.992-1.94-2.936-3.355
			c-2.411-3.565-4.035-5.557-6.29-9.226c-1.834-2.988-2.935-4.875-5.242-7.548c-0.786-0.943-1.153-1.782-2.096-2.516
			c-1.206-0.944-1.887-1.625-3.145-2.516c-2.83-2.045-4.77-3.408-6.5-6.5c-0.891-1.626-1.1-2.988-2.516-4.193
			c-1.205-0.996-2.097-1.573-2.935-2.935c-0.944-1.521-1.363-2.674-2.306-4.194c-2.358-3.827-4.508-6.29-7.548-9.645
			c-2.096-5.032-4.193-7.496-6.08-12.58c-0.576-1.625-0.734-2.673-1.468-4.193c-0.209-0.419-0.681-0.419-0.838-0.838
			c-0.21-0.578-0.262-1.101-0.419-1.678c-0.944-2.935-1.468-4.665-2.516-7.548c-1.415-3.774-3.406-5.452-4.822-9.225
			c-0.734-1.992-0.996-3.303-1.887-5.242c-1.363-2.988-2.726-4.508-3.984-7.548c-0.629-1.521-0.681-2.569-1.049-4.193
			c-0.89-3.565-1.363-5.661-2.096-9.226c-0.049-0.236-0.094-0.456-0.137-0.669c-1.311,0.209-2.431,0.512-3.637,0.879
			c-0.576,0.157-1.205,0.052-1.678,0.419c-0.943,0.734-0.943,1.729-1.048,2.935l0.839,6.709c-0.157,1.153-0.052,1.887-0.419,2.936
			c-0.366,0.995-1.519,1.048-2.516,1.468c-0.734,0.314-1.101,0.681-1.678,1.258c-1.625,1.624-2.358,2.883-3.564,4.823
			c-1.31,2.096-3.197,2.253-5.452,3.145c-1.887,0.786-3.04,1.153-5.032,1.468c-0.944,0.157-1.782-0.209-2.516,0.419
			c-0.471,0.366-0.261,1.101-0.419,1.678c-0.315,1.1-1.573,1.414-1.888,2.516c-0.629,2.044-1.1,3.25-2.306,5.032
			c-0.681,0.995-1.205,1.572-1.887,2.516c-0.944,1.258-1.31,2.358-2.726,3.145c-1.729,0.944-3.145,0.419-5.137,0.419
			c-2.359,0-3.879,0.21-5.976-0.839c-0.629-0.314-1.205-0.524-1.677-1.048c-0.629-0.734-0.681-1.573-1.048-2.516
			c-0.891-2.15-1.834-3.25-3.355-5.032c-0.734-0.891-1.258-1.572-2.097-2.306c-0.576-0.524-1.258-0.577-1.677-1.258
			c-1.31-1.94-1.729-3.408-2.306-5.661c-0.576-2.201-1.258-3.565-1.258-5.87c0-0.473-0.314-0.996,0-1.258
			c0.839-0.734,1.73-0.839,2.935-0.839c0.944,0,1.258,0.891,2.097,1.258c1.73,0.734,2.726,1.153,4.613,1.468
			c-0.315-1.573-1.258-2.359-1.258-3.983c0-1.573,1.048-2.411,1.048-3.984c0-1.782-0.681-2.883-1.468-4.403
			c-0.839-1.573-1.468-2.726-2.935-3.774c-0.839-0.577-1.52-0.682-2.516-0.839c-2.831-0.524-4.455-0.629-7.339-0.629
			c-2.883,0-4.665,0.104-7.338,1.258c-1.153,0.471-1.573,1.31-2.517,2.097c-1.625,1.415-2.568,2.148-4.193,3.564
			c-1.206,1.049-1.678,1.992-2.516,3.355c-0.838,1.415-1.782,2.044-2.726,3.355c-1.468,1.991-2.725,3.355-2.725,5.87
			c0,1.678,0.577,2.568,0.839,4.193c0.681,4.14,0.838,6.499,0.838,10.693c0,1.887,0.21,2.935,0,4.822
			c-0.157,1.415-0.629,2.149-0.629,3.565c0,1.414,0.577,2.253,1.048,3.564c0.629,1.73,1.258,2.778,2.097,4.404
			c0.734,1.363,1.468,2.201,1.468,3.774c0,3.46-2.254,5.032-3.565,8.177c-0.366,0.891-0.209,1.519-0.209,2.516
			c0,0.944-1.101,1.049-1.887,1.468c-1.415,0.786-1.887,2.149-1.887,3.774c0,5.084,0.891,7.915,1.258,13
			c0.21,2.725,0.524,4.403,1.468,6.919c0.943,2.517,4.403,2.726,4.403,5.399v4.299c0,2.306-0.419,3.722-1.258,5.819
			c-0.366,0.996-0.996,1.519-1.468,2.516c-0.734,1.624-0.944,2.726-1.677,4.403c-1.415,3.197-1.678,5.347-3.355,8.387
			c-0.943,1.678-1.991,2.411-2.725,4.194l12.58,3.145c2.569-0.419,3.617-1.782,6.081-2.516c2.255-0.681,3.722-0.629,6.081-0.629
			c1.311,0,2.254-0.629,3.355,0c1.206,0.681,0.996,2.044,1.468,3.355c0.629,1.678,1.468,2.883,1.887,4.613
			c0,0.995-0.105,1.572-0.105,2.568c0,2.255,1.782,3.04,2.831,4.981c0.996,1.834,1.573,3.04,2.307,5.032
			c0.629,1.729,1.468,2.726,1.468,4.613c0,0.524-0.262,0.786-0.419,1.258c-0.21,0.629-0.105,1.258-0.629,1.677
			c-0.471,0.367-1.048,0.157-1.677,0.21c-1.31,0.157-2.097,0.261-3.355,0.419c-2.83,0.419-4.508,0.839-7.129,1.888
			c-2.568,1.048-3.931,2.358-5.661,4.612c-0.524,0.681-0.734,1.258-1.258,1.887c-1.834,2.149-4.035,2.726-6.919,2.726
			c-0.996,0-1.52-0.314-2.516-0.419c-1.939-0.209-3.25,0-5.032-0.629c-1.048-0.368-1.573-1.101-2.516-1.678
			c-3.355-2.096-5.766-3.145-9.749-3.145c-1.363,0-2.097,0.419-3.46,0.419c-1.624,0-2.568-0.419-4.193-0.419
			c-1.835,0-2.936,0.366-4.613,1.048c-1.258,0.524-2.149,0.734-3.355,1.468c-0.681,0.419-0.891,1.1-1.468,1.678
			c-1.31,1.309-2.463,1.886-4.193,2.516c-0.996,0.366-1.573,0.786-2.516,1.258c-3.879,1.94-6.343,3.145-10.694,3.145
			c0.158,2.044-0.68,3.722,0.63,5.242c0.419,0.524,1.048,0.471,1.677,0.839c0.944,0.524,1.573,0.786,2.516,1.258
			c0.996,0.472,1.416,1.206,2.307,1.888c1.206,0.89,2.569,0.995,3.355,2.306c0.682,1.101,0.63,1.992,0.63,3.302v4.718
			c0,4.088,1.677,6.342,1.677,10.431c0,3.092-0.996,5.189-3.145,7.339c-0.575,0.576-0.629,1.153-1.258,1.677
			c-1.31,1.101-2.463,1.468-3.355,2.935c-2.726,4.404-3.406,7.601-3.565,12.791c-0.052,2.778-0.419,4.403-0.838,7.129
			c-0.367,2.253-0.472,3.721-1.258,5.87c-0.471,1.31-0.629,2.148-1.258,3.355c-0.366,0.734-0.995,0.839-1.677,1.258
			c-2.831,1.729-4.77,2.673-6.5,5.451c-1.678,2.726-2.044,4.665-2.726,7.758c-0.419,1.992-0.995,3.04-1.468,5.032
			c-1.258,5.032-1.519,7.914-3.145,12.79c-1.729,5.242-2.673,8.386-4.403,13.629c-0.524,1.573-0.629,2.673-1.258,4.193
			c-0.524,1.31-1.573,1.573-2.306,2.726c-0.057,0.085-0.105,0.16-0.16,0.242h560.024
			C1121.406,597.281,1120.318,596.39,1119.01,595.576z"/>
		<path fill="#D9D9EC" d="M745.169,70.985c0.891-1.206,1.73-1.835,3.145-2.306c-0.052-0.263,0.158-0.629,0-0.839
			c-0.891-1.153-1.625-1.887-2.726-2.725c0,1.677,0.263,2.987-0.839,4.194c-0.471,0.524-1.1,0.681-1.677,1.048
			c-0.734,0.471-1.206,1.048-2.149,1.048c-0.891,0-1.363-0.158-2.255-0.21c0,1.468-0.629,3.145-2.096,3.145
			c-0.419,0-0.209-0.839-0.629-0.839c-0.524,0-0.734,0.419-1.258,0.419c-1.153,0-1.31-1.363-1.887-2.306
			c-0.157-0.262-0.157-0.681-0.419-0.839c-0.524-0.314-1.153,0.315-1.677,0c-0.262-0.158,0-0.629-0.21-0.838
			c-0.209-0.209-0.576-0.158-0.839-0.419c-0.576-0.577-0.576-1.311-1.258-1.678c-0.891-0.524-1.52-0.577-2.517-0.838
			c-0.943-0.263-1.519-0.63-2.516-0.63c-0.681,0-0.734,0.839-1.258,1.258c-0.838,0.629-1.886,0.629-2.516,1.468
			c-0.629,0.786-0.629,1.519-0.839,2.516c-0.314,1.258,0,2.044,0,3.355c0,0.996-0.314,1.678-1.048,2.306
			c-0.576,0.524-1.677,0.419-1.677,1.258c0,0.839,0.629,1.258,0.629,2.096c0,1.415-1.573,1.783-2.726,2.516
			c0.419,1.048,0.629,1.782,0.629,2.935c0,2.253-0.366,3.826-1.886,5.451c-1.834,1.94-3.984,1.782-6.709,2.097
			c-0.996,0.104-1.52,0.629-2.517,0.629c-1.939,0-2.883-1.887-3.355-3.774c-0.314-1.363-0.576-2.15-1.258-3.355
			c-1.678,0.839-2.202,2.096-2.936,3.774c-0.419,1.048-1.205,1.468-1.677,2.516c-0.681,1.573-0.996,2.568-1.468,4.193
			c-0.734,2.568-0.63,4.455-2.097,6.709c-0.629,0.944-1.573,1.101-2.516,1.678c-2.831,1.729-3.774,3.931-5.242,6.919
			c-0.471,0.996-0.944,1.624-1.258,2.726c-0.349,1.192-0.779,2.061-1.262,2.939v0c2.306,0.158,3.621,0.415,5.927,0.415
			c1.625,0,2.516,0.053,4.141-0.209c0.419,1.153,0.472,1.94,0.629,3.145c0.157,0.996,0.734,1.572,1.048,2.516
			c0.419,1.206,0.419,2.045,0.419,3.355c0,1.153-0.629,1.782-0.629,2.935c0,1.73,0.629,2.673,0.629,4.403
			c0,2.202-1.205,3.25-1.468,5.452c-0.157,1.625,0.053,2.621-0.209,4.193c-0.262,1.625-0.786,2.568-1.048,4.193
			c-0.839,5.084-2.307,7.915-2.307,13.104c0,1.52-0.314,2.464,0.209,3.878c0.629,1.73,1.678,2.726,1.678,4.613
			c0,2.201-0.839,3.407-0.839,5.609v4.298c0,1.31,0.577,2.044,0.839,3.302c0.524,2.726,0,4.875,1.677,7.129
			c0.787,1.048,1.835,1.258,2.516,2.306c1.573,2.359,2.988,4.613,5.871,4.613c1.311,0,2.096-0.419,3.407-0.419h4.979l1.258-0.839
			c0.314-1.992,0-3.093,0-5.085c0-1.624-0.105-2.621,0.419-4.141c0.314-0.943,1.048-1.468,1.048-2.516
			c0-0.682-1.048-0.787-1.048-1.468c0-0.734,0.629-0.996,0.839-1.678c0.472-1.258,0.682-2.096,1.048-3.355
			c0.157-0.577,0-1.258,0.419-1.677c0.419-0.419,1.101-0.21,1.678-0.419c1.047-0.368,1.73-0.891,2.516-1.678
			c1.416-1.415,2.359-2.411,3.564-3.983c0.891-1.153,0.891-2.255,1.678-3.564c0.996-1.626,1.835-2.465,2.516-4.193
			c0.524-1.311,1.207-2.097,1.887-3.355c1.625-3.094,2.516-4.981,3.355-8.387c0.314-1.363,0.787-2.045,1.258-3.355
			c0.314-0.891,0.158-1.573,0.419-2.516c0.367-1.153,1.677-1.049,2.725-1.678c0.997-0.629,1.311-1.416,2.097-2.306
			c-0.996-0.368-1.887-0.419-2.516-1.258c-0.367-0.472-0.315-1.101-0.419-1.677c-0.314-1.258-0.63-2.045-0.63-3.355
			c0-1.94,0.63-3.093,0.63-5.032c0-0.629-0.053-1.101-0.21-1.677c-0.209-0.787-1.258-0.839-1.258-1.678
			c0-2.15,1.991-2.883,3.145-4.612c0.577-0.839,0.577-1.626,1.048-2.516c0.734-1.416,2.936-1.311,2.936-2.935
			c0-1.416-1.625-1.73-2.936-2.096c-2.201-0.629-3.721-0.473-5.87-1.258c-1.729-0.629-2.306-1.992-3.565-3.355
			c-1.205-1.311-2.516-1.887-3.145-3.565c-0.105-0.367-0.63-0.419-0.63-0.839c0-0.419,0.578-0.472,0.63-0.838h1.677
			c0.473,0.419,0.787,1.048,1.468,1.048c0.839,0,0.839-1.258,1.678-1.258c1.468,0,1.468,1.783,2.306,2.936
			c0.891,1.258,2.201,1.677,3.774,1.677c1.52,0,2.306-0.944,3.827-0.944c0.944,0,1.52,0.105,2.463,0
			c-0.105-0.943,0.21-1.572-0.209-2.411c-0.472-0.944-1.049-1.521-1.468-2.516c-0.262-0.577-0.21-1.206-0.629-1.678
			c-0.157-0.209-0.629-0.052-0.838-0.209c-0.629-0.473-0.891-0.892-1.258-1.678c0.891-0.209,1.206-0.839,2.096-0.839
			c0.524,0,0.524,0.839,1.048,0.839c0.419,0,0.473-0.577,0.839-0.629c0.577-0.105,1.101-0.314,1.678-0.419
			c-0.157-0.996-0.105-1.573-0.419-2.516c-0.366-1.101-1.258-1.73-1.258-2.936c0-0.838,0.419-1.258,0.419-2.096
			c0-0.734-1.048-0.682-1.677-1.048c-0.944-0.524-1.52-0.996-2.517-1.468c-0.734,1.258-0.839,2.201-1.258,3.564
			c-0.996-0.472-1.834-0.419-2.516-1.258c-0.629-0.787-0.104-1.783-0.838-2.517c-0.735-0.734-1.52-0.629-2.517-0.838
			c0.263-3.145,2.045-5.137,4.822-6.5c0.944-0.473,1.626-0.629,2.517-1.258c1.625-1.153,2.778-2.306,4.822-2.306
			c0.367,0,0.524,0.367,0.839,0.419l3.355-0.838c-0.315-1.258-0.524-2.045-0.629-3.355c0-0.367-0.419-0.472-0.419-0.838
			C743.912,71.824,744.698,71.614,745.169,70.985z"/>
		<polygon fill="#D9D9EC" points="723.646,303.466 723.646,303.466 723.647,303.466 		"/>
		<path fill="#FFFFFF" d="M703.655,251.09c1.519-0.629,2.516-0.629,4.193-0.838c2.412-0.262,3.774-0.629,6.186-0.629
			c0-2.936,0.472-4.613,0.105-7.548c-1.94,0-3.565-1.363-5.242-2.306v0c-0.314,1.258-0.263,2.15-0.63,3.355
			c-0.209,0.682-0.262,1.311-0.838,1.677c-0.787,0.524-1.573-0.209-2.569-0.209h-3.931c0,3.093,0.891,5.032,0,7.968
			C702.03,252.139,702.554,251.51,703.655,251.09z"/>
		<path fill="#D9D9EC" d="M675.979,1521.473c-0.157-0.263-1.414-0.052-1.677-0.209v0c-2.726,0.891-3.879,2.673-6.709,3.145
			c-3.04,0.473-4.247,3.145-7.339,3.145c-0.052,0.629-0.209,1.048-0.209,1.678c0,0.838,0.734,1.048,1.258,1.677
			c0.681,0.786,1.205,1.678,2.306,1.678c1.205,0,1.729-0.734,2.935-0.839l5.032,1.258c3.984-1.311,6.657-2.149,9.435-5.242
			c-0.366-0.157-0.471-0.575-0.839-0.629c-1.677-0.366-3.983-0.157-3.983-1.887c0-0.525,0.419-0.734,0.419-1.258
			C676.607,1522.994,676.451,1522.312,675.979,1521.473z"/>
		<path fill="#488638" d="M648.302,1531.747c-0.524-0.471-1.258-0.525-1.678-1.049c-0.419-0.524-0.156-1.309-0.629-1.677
			c-0.471-0.366-1.048-0.157-1.677-0.209c-0.315,0-0.524-0.21-0.839-0.21c-0.577,0-0.787,0.577-1.048,1.048
			c-0.578,0.944-1.049,1.626-1.678,2.517c1.625,0.943,2.726,1.468,4.613,1.468c1.206,0,1.887-0.471,2.935-1.048
			C648.198,1532.324,648.512,1531.905,648.302,1531.747z"/>
		<path fill="#D9D9EC" d="M453.31,1605.341l8.387,1.677c1.311,1.783,2.045,2.935,2.726,5.032c0.314,0.944,0.052,1.782,0.629,2.516
			c0.838,1.101,2.096,1.153,3.355,1.887c1.258,0.734,2.045,1.101,3.355,1.678c0.629,0.262,0.944,0.839,1.677,0.839
			c1.468,0,1.468-2.306,2.936-2.306c2.201,0,3.145,1.363,5.032,2.516c0.472,0.262,0.682,0.839,1.258,0.839
			c1.573,0,2.411-0.996,3.774-1.677c1.782-0.891,2.988-1.468,5.032-1.468c2.621,0,4.507,0.525,6.709-0.839
			c1.311-0.786,1.572-1.887,2.516-3.145c0.629,0.261,1.048,0.576,1.678,0.838c0.367,0.157,0.419,0.629,0.838,0.629
			c0.734,0,1.048-0.787,1.678-1.048c0.524-0.21,1.101-0.263,1.677-0.42c1.363-0.419,2.097-0.944,3.355-1.678
			c1.258-0.734,2.201-0.839,3.355-1.677c0.263-0.158,0.158-0.682,0.419-0.839c1.573-1.101,3.145-0.053,5.032-0.419
			c2.516-0.524,3.512-2.201,5.242-4.193c1.625-1.887,2.83-2.883,4.822-4.403c0.682-0.524,1.258-0.629,1.887-1.258
			c1.363-1.363,1.678-2.621,2.726-4.193c1.048-1.573,1.153-3.145,2.726-4.194c2.568-1.73,4.455-2.307,7.548-2.307
			c0.472-1.992,0.419-3.355,1.467-5.032c0.892-1.416,2.097-1.73,2.936-3.145c1.048-1.729,1.73-2.779,3.355-3.983
			c1.521-1.101,3.145-2.045,3.145-3.983c0-2.674-1.888-4.037-1.888-6.71c0-0.891,0.629-1.363,1.049-2.096
			c1.258-2.201,1.992-3.512,2.935-5.87c0.629-1.573,0.839-2.621,1.468-4.194c0.787-1.887,1.677-2.989,1.677-5.032
			c0-1.991-0.89-3.093-1.258-5.032c-0.314-1.626-0.157-2.989-1.258-4.194c-0.681-0.734-1.519-0.734-2.516-1.048
			c-1.678-0.525-2.987-0.891-3.984-2.307c-0.944-1.363-0.472-2.621-1.049-4.193c-0.471-1.311-1.258-1.94-1.258-3.355
			c0-1.677,0.682-2.621,1.258-4.194c0.629-1.677,1.206-2.621,2.097-4.193c2.15-3.722,4.037-5.504,7.338-8.386
			c0.944-0.787,1.311-1.573,2.307-2.307c1.468-1.101,2.726-1.416,4.193-2.517c2.359-1.73,3.669-3.512,6.081-5.242
			c1.153-0.838,1.468-1.991,2.516-2.935c0.524-0.472,1.101-0.472,1.677-0.839c0.682-0.472,0.629-1.258,0.629-2.096
			c0-1.153-0.629-1.782-0.629-2.935c0-0.368,0.367-0.524,0.419-0.839l1.678,0.42l0.839-0.209c0-2.307-0.576-3.617-0.21-5.871
			c0.262-1.782,1.206-2.621,2.097-4.194c0.943-1.677,1.468-2.726,2.935-3.983c1.94-1.625,3.46-2.15,5.87-3.145
			c3.145-1.311,5.032-2.096,8.387-2.935c1.625-0.368,2.569-0.472,4.193-0.839c3.878-0.943,6.081-1.572,10.064-1.887
			c4.613-0.367,7.182-0.734,11.742-1.468c1.311-0.209,2.045-0.838,3.407-0.838c4.56,0,7.076,0.209,11.637,0.209
			c1.992,0,3.145,0.629,5.137,0.629c3.564,0,5.556,0.21,9.12,0.21c1.678,0,2.831-0.21,4.246-1.048
			c0.681-0.368,0.681-1.101,1.258-1.678c0.996-0.996,1.73-1.835,3.145-2.097c2.83-0.577,4.612-0.263,7.548-0.629
			c0.838-0.104,1.258-0.42,2.096-0.42c2.15,0,2.989,1.415,5.032,2.097l8.387-1.258l3.355,0.419c2.307-0.263,3.145-2.516,5.452-2.516
			c2.621,0,4.089,0.314,6.709,0.629c1.363,0.157,2.045,0.839,3.408,0.839h4.089c1.519,0,2.149,1.1,3.406,1.887
			c1.678,1.048,3.04,1.048,5.032,1.048c1.311,0,2.359,0.366,3.355-0.419c1.311-0.996,0.996-2.569,1.258-4.193
			c0.21-1.363,0.524-2.202,1.258-3.355c0.734-1.206,1.94-1.52,2.935-2.516c1.416-1.416,2.359-2.15,3.984-3.354
			c0.891-0.629,1.834-0.839,2.516-1.678c0.367-0.472,0.262-1.101,0.419-1.677c0.839-2.988,3.04-3.879,5.242-6.08
			c1.416-1.416,2.096-2.411,3.774-3.565c2.359-1.573,3.878-2.411,5.871-4.403c0.734-0.734,1.311-1.311,2.306-1.677
			c1.206-0.473,2.726-0.787,2.726-2.097c0-1.939,0.104-3.198-0.419-5.032c-0.629-2.255-1.678-3.513-1.678-5.871
			c0-0.367,0.368-0.524,0.419-0.839c0.473-1.782,1.573-2.621,2.516-4.193c1.312-2.149,1.521-3.774,2.936-5.87
			c0.838-1.258,1.94-1.73,2.516-3.145c0.629-1.521,0.524-2.621,1.048-4.193c0.368-1.206,0.629-2.045,0.629-3.355
			c0-3.774,0.21-5.714,0.21-9.489c0-1.414,1.048-2.096,1.678-3.301c1.101-2.045,2.306-3.303,2.306-5.661
			c0-1.783-0.524-2.831-0.419-4.613c0.158-2.306,0.419-3.617,0-5.871c-0.156-0.996-0.838-1.467-0.838-2.516
			c0-1.73,1.153-2.516,1.468-4.193c0.314-1.572-0.681-2.725,0-4.193c0.314-0.682,0.943-0.996,1.468-1.468
			c0.944-0.839,1.521-1.521,2.516-2.307c0.263-0.21,0.577-0.21,0.839-0.419c1.625-1.363,1.678-2.989,3.355-4.194
			c0.891-0.629,1.73-0.734,2.516-1.468c1.363-1.258,1.363-2.674,2.097-4.403c0.891-2.15,2.201-3.094,3.774-4.823
			c2.15-2.359,2.883-4.403,5.451-6.29c2.516-1.887,4.403-2.725,6.709-4.822c0.839-0.734,1.312-1.416,2.306-1.887
			c0.891-0.419,1.626-0.577,2.516-1.048c1.049-0.577,1.521-1.311,2.516-1.887c4.193-2.621,7.077-3.303,11.742-4.822
			c1.258-0.419,2.149-0.473,3.355-1.049c2.516-1.258,4.037-1.834,6.709-2.725c1.94-0.63,3.04-1.206,5.032-1.678
			c1.572-0.367,2.673-0.209,4.193-0.629c3.669-1.048,5.661-2.045,9.226-3.355c2.15-0.787,3.617-0.892,5.87-1.258
			c2.306-0.367,3.564-1.363,5.87-1.677c2.411-0.368,3.827-0.368,6.291-0.629c1.677-0.209,2.569-0.682,4.193-1.048
			c0.944-0.209,1.573-0.053,2.517-0.209c1.939-0.314,3.04-1.049,5.032-1.258c2.36-0.263,3.722-0.053,6.08-0.209
			c1.625-0.105,2.569-0.525,4.194-0.63c4.247-0.314,6.657-0.314,10.903-0.629c1.311-0.105,2.096-0.419,3.408-0.419
			c3.983,0,6.185-0.209,10.168-0.209c3.46,0,5.399,0.838,8.858,0.838c2.779,0,4.403-0.629,7.182-0.629h4.927
			c1.834,0,2.725-1.101,4.245-2.096c0.891-0.577,1.52-0.839,2.516-1.258c1.887-0.839,2.989-1.468,5.032-1.887
			c1.258-0.263,2.045-0.472,3.355-0.629c0.996-0.105,1.625,0.104,2.516-0.21c1.153-0.419,1.311-1.625,2.096-2.516
			c1.207-1.311,2.255-2.097,2.936-3.774c-1.992-0.786-3.25-1.94-3.984-3.983c-0.314-0.892,0.105-1.573-0.209-2.517
			c-0.314-1.048-1.415-1.311-1.887-2.307c-0.105-0.262,0.053-0.577,0-0.839c-0.629-1.886-1.258-3.04-1.258-5.032
			c0-2.306,0.314-3.617,0.839-5.87c0.105-0.577,0.42-1.048,0.42-1.678c0-1.101-0.996-1.468-1.678-2.306
			c-0.419-0.525-0.629-1.101-1.048-1.677c-1.258-1.573-2.726-1.835-3.774-3.565c-0.524-0.891-1.1-1.468-1.258-2.516
			c-0.262-1.573,0.367-2.674-0.21-4.193c-0.105-0.314-0.262-0.524-0.42-0.839c-0.105-0.262-0.734,0-0.839-0.209
			c-0.261-0.419,0.368-0.734,0.368-1.258c0-0.209-0.368-0.209-0.368-0.419c0-0.996,0.21-1.572,0.42-2.516
			c0.21-2.883,0.262-4.927,0.262-7.811c0-0.314,0.367-0.471,0.367-0.786c0.209-2.045,0.419-3.25,0.838-5.242
			c0.105-0.577,0.42-0.996,0.42-1.625v-5.137c0-2.358-0.891-3.617-1.677-5.818c-1.153-3.145-2.463-4.717-4.193-7.548
			c-1.415-2.306-1.678-4.036-2.096-6.709c-0.315-2.096-1.049-3.303-1.049-5.451l1.468-11.742c-0.314-2.516-0.314-3.983-0.419-6.5
			c-0.052-1.677-0.262-2.621-0.839-4.193c-0.524-1.415-1.258-2.254-1.258-3.773c0-5.032,2.15-7.653,4.403-12.161
			c0.734-1.468,0.473-2.726,1.258-4.193c0.368-0.734,1.258-0.787,1.677-1.468c1.363-2.097,1.888-3.512,2.726-5.87
			c0.787-2.201,1.626-3.513,1.678-5.871c0.052-2.411,1.939-3.459,1.887-5.87c-0.108-2.638,0.857-4.36,1.929-6.322H496.515
			l-51.701,18.471v455.07C447.417,1605.256,449.973,1605.313,453.31,1605.341z"/>
	</g>
</g>
</svg>
