<?xml version="1.0" standalone="no"?><!DOCTYPE svg PUBLIC "-//W3C//DTD SVG 1.1//EN" "http://www.w3.org/Graphics/SVG/1.1/DTD/svg11.dtd"><svg t="1740377677870" class="icon" viewBox="0 0 1194 1024" version="1.1" xmlns="http://www.w3.org/2000/svg" p-id="11463" xmlns:xlink="http://www.w3.org/1999/xlink" width="74.625" height="64"><path d="M690.261333 785.493333A289.109333 289.109333 0 0 1 1163.093333 562.346667V221.610667A194.133333 194.133333 0 0 0 969.216 27.733333H217.856A194.133333 194.133333 0 0 0 23.893333 221.610667v573.013333a194.133333 194.133333 0 0 0 193.877334 193.877333h555.776a287.829333 287.829333 0 0 1-83.370667-203.093333z" fill="#FFCB6F" p-id="11464"></path><path d="M770.218667 785.493333a209.066667 209.066667 0 1 0 418.133333 0 209.066667 209.066667 0 0 0-418.133333 0z" fill="#FFCB6F" p-id="11465"></path><path d="M1163.093333 396.373333a643.157333 643.157333 0 0 0-807.424 592.213334h417.962667a289.109333 289.109333 0 0 1 389.461333-426.154667V396.458667z" fill="#FFB736" p-id="11466"></path><path d="M217.856 27.733333A194.133333 194.133333 0 0 0 23.893333 221.610667v251.562666A643.413333 643.413333 0 0 0 720.896 27.733333H217.856z" fill="#FFDA97" p-id="11467"></path><path d="M521.472 522.410667a151.296 151.296 0 0 0-110.933333-253.610667c-83.370667 0-151.210667 67.754667-151.210667 151.04 0 39.594667 15.274667 75.605333 40.106667 102.570667a202.581333 202.581333 0 0 0-91.648 169.386666 40.96 40.96 0 0 0 81.92 0c0-66.56 54.186667-120.746667 120.746666-120.746666s120.832 54.101333 120.832 120.746666a40.96 40.96 0 0 0 81.92 0c-0.085333-70.826667-36.693333-133.12-91.733333-169.386666zM341.162667 419.84a69.290667 69.290667 0 0 1 138.496 0 69.290667 69.290667 0 0 1-138.496 0z m649.216-40.96a40.96 40.96 0 0 0-40.96-40.96H741.12a40.96 40.96 0 0 0 0 81.92h208.213333a40.96 40.96 0 0 0 40.96-40.96zM1088.853333 704a37.546667 37.546667 0 0 0-52.906666 4.864l-76.8 92.330667-34.56-33.706667a37.546667 37.546667 0 1 0-52.394667 53.930667l63.744 61.866666c6.997333 6.826667 16.469333 10.666667 26.112 10.666667h1.962667a37.546667 37.546667 0 0 0 26.965333-13.653333l102.656-123.392a37.461333 37.461333 0 0 0-4.778667-52.906667z" fill="#FFFFFF" p-id="11468"></path></svg>